<?xml version="1.0" encoding="utf-8"?>
<!-- Generator: Adobe Illustrator 22.0.1, SVG Export Plug-In . SVG Version: 6.00 Build 0)  -->
<svg version="1.1" xmlns="http://www.w3.org/2000/svg" xmlns:xlink="http://www.w3.org/1999/xlink" x="0px" y="0px"
	 viewBox="0 0 1163.9418 665.9667" enable-background="new 0 0 1163.9418 665.9667" xml:space="preserve">
<g id="Admin1Polygons">
	<polygon fill="none" stroke="#808080" stroke-width="0.5" stroke-miterlimit="10" points="181.4995,34.8295 181.4995,113.4808 
		39.7993,113.4808 39.7993,47.5258 82.2785,47.5258 75.2914,34.8295 	"/>
	<path fill="none" stroke="#808080" stroke-width="0.5" stroke-miterlimit="10" d="M416.3472,34.8295v97.2149H292.8053
		c0,7.0077-5.6817,12.6894-12.6895,12.6894c-3.1122,0-5.9703-1.1267-8.1756-2.9886l-63.9901-63.9901V34.8295H416.3472z"/>
	<polygon fill="none" stroke="#808080" stroke-width="0.5" stroke-miterlimit="10" points="550.3938,114.1678 416.3472,114.1678 
		416.3472,34.8295 541.6204,34.8295 	"/>
	
		<rect x="331.2722" y="235.628" fill="none" stroke="#808080" stroke-width="0.5" stroke-miterlimit="10" width="124.0091" height="103.1989"/>
	<polygon fill="none" stroke="#808080" stroke-width="0.5" stroke-miterlimit="10" points="435.0139,338.8269 435.0139,458.7138 
		348.7915,458.7138 348.7915,472.1109 331.2722,472.1109 331.2722,338.8269 	"/>
	<polygon fill="none" stroke="#808080" stroke-width="0.5" stroke-miterlimit="10" points="331.2722,338.8269 331.2722,472.1109 
		299.2428,472.1109 233.3703,446.3473 233.3703,338.8269 	"/>
	<path fill="none" stroke="#808080" stroke-width="0.5" stroke-miterlimit="10" d="M233.3703,393.4459v52.9014h-54.4128
		C135.3447,420.508,99.255,383.3122,74.7692,338.8269c-21.243-38.5768-33.7538-82.6292-34.8874-129.5053h89.0598v79.6956
		L233.3703,393.4459z"/>
	<polygon fill="none" stroke="#808080" stroke-width="0.5" stroke-miterlimit="10" points="233.3703,209.3216 233.3703,393.4459 
		128.9416,289.0172 128.9416,209.3216 	"/>
	<path fill="none" stroke="#808080" stroke-width="0.5" stroke-miterlimit="10" d="M181.4995,113.4808v95.8408H39.8818
		c-0.0549-2.3153-0.0824-4.6443-0.0824-6.9734v-88.8674H181.4995z"/>
	<path fill="none" stroke="#808080" stroke-width="0.5" stroke-miterlimit="10" d="M292.8053,132.0444v77.2772H181.4995V34.8295
		h26.4507v42.9257L270.415,140.22c0.4604,0.5497,0.9756,1.0649,1.5252,1.5253c2.2054,1.8618,5.0634,2.9886,8.1756,2.9886
		C287.1236,144.7338,292.8053,139.052,292.8053,132.0444z"/>
	<polygon fill="none" stroke="#808080" stroke-width="0.5" stroke-miterlimit="10" points="331.2722,235.628 331.2722,338.8269 
		233.3703,338.8269 233.3703,209.3216 292.8053,209.3216 292.8053,235.628 	"/>
	
		<rect x="292.8053" y="132.0444" fill="none" stroke="#808080" stroke-width="0.5" stroke-miterlimit="10" width="123.5419" height="103.5836"/>
	<path fill="none" stroke="#808080" stroke-width="0.5" stroke-miterlimit="10" d="M598.1837,430.202v110.8524
		c-26.5538,10.7452-46.5326,36.4195-48.4357,67.9474c-18.3781,4.8092-31.521-2.494-41.5654-18.2064l-30.4011-53.2449
		c-8.2444-13.7406-21.8819-29.3706-43.7708-17.4643l-17.1964,9.5909l-41.9639-70.9634h60.1633V351.1935h59.4282v51.1907
		l90.5301,24.2728L598.1837,430.202z"/>
	<path fill="none" stroke="#808080" stroke-width="0.5" stroke-miterlimit="10" d="M694.1413,509.2106v39.5043h-25.1934
		c-23.8674-15.3002-49.4388-16.2895-70.7642-7.6604v-97.1118h33.9256c-6.2108,21.8407-3.181,45.6807,8.2031,65.2679H694.1413z"/>
	<polygon fill="none" stroke="#808080" stroke-width="0.5" stroke-miterlimit="10" points="558.755,189.7412 416.3472,189.7412 
		416.3472,114.1678 550.3938,114.1678 556.5153,169.4738 	"/>
	<path fill="none" stroke="#808080" stroke-width="0.5" stroke-miterlimit="10" d="M833.375,338.8269l-50.4968,50.4968H653.2217
		c1.6901-13.8574-0.0825-28.0927-5.2214-41.0844c-1.2985-3.2909-2.913-6.3688-4.6031-9.4123H833.375z"/>
	<path fill="none" stroke="#808080" stroke-width="0.5" stroke-miterlimit="10" d="M894.8643,641.464
		c-25.3034-14.3109-54.3854-43.6264-58.7412-88.5102c-9.8452-7.9008-39.3875-28.8553-75.8001-28.8553h-29.5424v-14.8879h136.4719
		c0.6252,2.7481,1.4359,5.4207,2.4251,8.0176c0.0069,0.0137,0.0138,0.0275,0.0206,0.0412
		c11.2056,22.7682,17.9591,32.9432,25.537,45.5571C910.0133,586.5222,922.1943,613.2339,894.8643,641.464z"/>
	<polygon fill="none" stroke="#808080" stroke-width="0.5" stroke-miterlimit="10" points="767.1933,389.3237 767.1933,509.2106 
		730.7806,509.2106 730.7806,524.0985 709.943,524.0985 709.943,389.3237 	"/>
	<path fill="none" stroke="#808080" stroke-width="0.5" stroke-miterlimit="10" d="M709.943,389.3237v134.7748h-15.8017v-14.8879
		h-53.8289c-11.3841-19.5872-14.4139-43.4272-8.2031-65.2679c0.6115-2.1435,1.3054-4.2665,2.0954-6.3619
		c2.597-6.9321,6.5062-12.9093,9.9482-19.3949c3.71-7.0009,6.4169-14.5307,8.004-22.2942c0.4466-2.1779,0.7969-4.3695,1.0649-6.568
		H709.943z"/>
	<path fill="none" stroke="#808080" stroke-width="0.5" stroke-miterlimit="10" d="M865.7547,495.8135
		c0,4.6031,0.5153,9.0894,1.4978,13.3971H767.1933V389.3237h27.8248l77.9367,77.9368
		C868.3586,475.7522,865.7547,485.4805,865.7547,495.8135z"/>
	<path fill="none" stroke="#808080" stroke-width="0.5" stroke-miterlimit="10" d="M901.2125,417.8836l-26.6637,46.6013
		l-0.1786,0.2954c-0.4946,0.8176-0.9686,1.6351-1.4153,2.4802l-77.9367-77.9368h77.6345L901.2125,417.8836z"/>
	<path fill="none" stroke="#808080" stroke-width="0.5" stroke-miterlimit="10" d="M936.0655,356.9989l-34.853,60.8847
		l-28.5599-28.5599h-89.7743l50.4968-50.4968h92.8109C929.1265,346.2537,932.7746,352.3752,936.0655,356.9989z"/>
	<path fill="none" stroke="#808080" stroke-width="0.5" stroke-miterlimit="10" d="M653.2217,389.3237
		c-0.2679,2.1985-0.6183,4.3901-1.0649,6.568c-1.587,7.7634-4.2939,15.2933-8.004,22.2942
		c-3.442,6.4856-7.3512,12.4628-9.9482,19.3949c-0.79,2.0954-1.4839,4.2184-2.0954,6.3619h-33.9256V430.202l-13.2116-3.5451
		l-9.7215-87.83h68.1466c1.6901,3.0435,3.3046,6.1214,4.6031,9.4123C653.1393,361.231,654.9119,375.4663,653.2217,389.3237z"/>
	<polygon fill="none" stroke="#808080" stroke-width="0.5" stroke-miterlimit="10" points="494.442,402.3842 494.442,351.1935 
		435.0139,351.1935 435.0139,338.8269 575.2506,338.8269 584.9721,426.657 	"/>
	<polygon fill="none" stroke="#808080" stroke-width="0.5" stroke-miterlimit="10" points="575.2506,338.8269 455.2813,338.8269 
		455.2813,261.1924 566.6627,261.1924 	"/>
	<polygon fill="none" stroke="#808080" stroke-width="0.5" stroke-miterlimit="10" points="455.2813,261.1924 455.2813,235.628 
		416.3472,235.628 416.3472,189.7412 558.755,189.7412 565.1788,247.7953 566.6627,261.1924 	"/>
	<path fill="none" stroke="#808080" stroke-width="0.5" stroke-miterlimit="10" d="M643.3972,338.8269h-68.1466l-8.5879-77.6345
		l-1.4839-13.3971h75.4084c-2.2328,4.0672-4.4725,8.1345-6.1695,12.4902c-5.7711,14.7712-7.1932,31.1569-4.1291,46.7112
		c1.5046,7.6742,4.1085,15.1284,7.6948,22.0743c0.0412,0.0824,0.0825,0.158,0.1237,0.2405
		C639.7903,332.5543,641.6384,335.6666,643.3972,338.8269z"/>
	<path fill="none" stroke="#808080" stroke-width="0.5" stroke-miterlimit="10" d="M652.2324,211.2934
		c-0.6939,8.8215-2.7894,17.5124-6.2039,25.6743c-1.5665,3.7443-3.497,7.2894-5.4413,10.8276h-75.4084l-6.4238-58.0541
		l-2.2397-20.2674h87.8987c2.3359,4.9191,4.3901,9.8864,5.723,15.4032c0.2611,1.0856,0.5015,2.1711,0.7145,3.2634
		C652.3767,195.7458,652.837,203.5643,652.2324,211.2934z"/>
	<path fill="none" stroke="#808080" stroke-width="0.5" stroke-miterlimit="10" d="M719.2729,214.1514v78.294l-81.2895,36.6256
		c-3.5863-6.9459-6.1902-14.4001-7.6948-22.0743c-3.0641-15.5544-1.642-31.9401,4.1291-46.7112
		c1.697-4.3557,3.9366-8.423,6.1695-12.4902c1.9443-3.5382,3.8749-7.0833,5.4413-10.8276
		c3.4145-8.1619,5.5099-16.8529,6.2039-25.6743c0.6046-7.7291,0.1443-15.5475-1.381-23.153h61.2076v12.4216
		C712.0591,206.2162,714.924,211.204,719.2729,214.1514z"/>
	<path fill="none" stroke="#808080" stroke-width="0.5" stroke-miterlimit="10" d="M770.3605,209.4383v59.9847l-51.0876,23.0224
		v-78.294c2.6245,1.7725,5.7848,2.8099,9.1856,2.8099c5.7917,0,10.8757-2.9954,13.7956-7.523H770.3605z"/>
	<path fill="none" stroke="#808080" stroke-width="0.5" stroke-miterlimit="10" d="M782.995,104.0891h-55.6426
		c-6.2451,4.9741-10.9856,11.755-13.4383,19.546l-32.8333-32.8264h88.627L782.995,104.0891z"/>
	<path fill="none" stroke="#808080" stroke-width="0.5" stroke-miterlimit="10" d="M809.6724,157.5675v51.8708h-67.4183
		c1.6557-2.5557,2.6107-5.6061,2.6107-8.8764v-57.5388c0-14.1666,11.4803-25.6469,25.6469-25.6469s25.6537,11.4803,25.6537,25.6469
		c0,5.4001-1.6694,10.4153-4.5275,14.5444H809.6724z"/>
	<path fill="none" stroke="#808080" stroke-width="0.5" stroke-miterlimit="10" d="M851.6981,203.6811v22.2872
		c0,28.869-23.4072,52.2762-52.2762,52.2762c-0.5771,0-1.1473-0.0069-1.7175-0.0344c-10.1062-0.3229-19.4774-3.5107-27.3439-8.7871
		v-59.9847h55.4022C833.2375,209.4383,842.8148,207.5903,851.6981,203.6811z"/>
	<path fill="none" stroke="#808080" stroke-width="0.5" stroke-miterlimit="10" d="M947.5939,249.2243l-6.7811,6.7879
		l-5.6405,5.6405h-83.4742v-57.9716c4.4038-1.9375,8.6429-4.3765,12.3665-7.3581v13.1153h75.2299l12.9437,12.9437
		C943.7052,229.8157,941.2389,240.6983,947.5939,249.2243z"/>
	<path fill="none" stroke="#808080" stroke-width="0.5" stroke-miterlimit="10" d="M813.9801,305.7807l-33.0462,33.0462H643.3972
		c-1.7588-3.1603-3.6069-6.2726-5.2902-9.5154c-0.0412-0.0825-0.0825-0.1581-0.1237-0.2405l81.2895-36.6256l51.0876-23.0224
		c7.8665,5.2764,17.2377,8.4642,27.3439,8.7871L813.9801,305.7807z"/>
	<path fill="none" stroke="#808080" stroke-width="0.5" stroke-miterlimit="10" d="M1118.0599,117.9946l-60.2526,35.595
		c-4.9535,3.5107-12.9506,10.8826-18.33,20.7484l-12.4421-12.4491v-49.2463l31.8782-77.8131h38.9685v50.4968L1118.0599,117.9946z"/>
	<path fill="none" stroke="#808080" stroke-width="0.5" stroke-miterlimit="10" d="M926.1859,338.8269h-145.252l33.0462-33.0462
		l6.252,10.594l74.2336-42.3143c9.4742,4.7405,15.9734,14.5307,15.9734,25.8324c0,2.3977-0.2885,4.7336-0.8519,6.9596
		l11.4185,11.4185C921.8851,325.9176,923.8088,332.8016,926.1859,338.8269z"/>
	<path fill="none" stroke="#808080" stroke-width="0.5" stroke-miterlimit="10" d="M935.1724,261.6527v44.8838l-9.275,9.2749
		v-36.6187c-5.2077,14.5239-6.2039,27.653-4.8916,39.0783l-11.4185-11.4185c0.5634-2.226,0.8519-4.5619,0.8519-6.9596
		c0-11.3017-6.4993-21.0919-15.9734-25.8324c-3.8749-1.9305-8.2512-3.0229-12.8818-3.0229c-6.4374,0-12.3803,2.1023-17.1758,5.668
		v-15.0529H935.1724z"/>
	<path fill="none" stroke="#808080" stroke-width="0.5" stroke-miterlimit="10" d="M894.4658,274.0605l-74.2336,42.3143
		l-6.252-10.594l-16.2758-27.5706c0.5702,0.0275,1.1404,0.0344,1.7175,0.0344c28.8691,0,52.2762-23.4072,52.2762-52.2762v35.6844
		h12.71v15.0529c4.7955-3.5657,10.7383-5.668,17.1758-5.668C886.2145,271.0376,890.5909,272.1299,894.4658,274.0605z"/>
	<polygon fill="none" stroke="#808080" stroke-width="0.5" stroke-miterlimit="10" points="1011.206,126.5344 991.4127,195.7527 
		980.0011,195.7527 980.0011,126.5344 	"/>
	<path fill="none" stroke="#808080" stroke-width="0.5" stroke-miterlimit="10" d="M1039.4774,174.338
		c-3.4146,6.2519-5.7781,13.507-5.6406,21.4147h-42.4241l19.7933-69.2184c2.2879-6.9459,7.4406-13.0536,15.8293-13.8917v49.2463
		L1039.4774,174.338z"/>
	<path fill="none" stroke="#808080" stroke-width="0.5" stroke-miterlimit="10" d="M980.0011,126.5344v106.4692l-14.881,2.2604
		l-25.8255-25.8256h-75.2299V196.323c7.9421-6.3345,13.5688-15.0872,13.5688-26.5057h44.1418
		c0-14.9979,24.0461-43.2829,39.3875-43.2829H980.0011z"/>
	<path fill="none" stroke="#808080" stroke-width="0.5" stroke-miterlimit="10" d="M951.9908,306.5365h-16.8185v-44.8838h3.9504
		C948.7,276.8911,953.3993,291.6554,951.9908,306.5365z"/>
	<path fill="none" stroke="#808080" stroke-width="0.5" stroke-miterlimit="10" d="M951.9908,306.5365
		c-1.1679,12.3459-6.5405,24.7675-16.8185,37.6149v-37.6149H951.9908z"/>
	<path fill="none" stroke="#808080" stroke-width="0.5" stroke-miterlimit="10" d="M959.9055,271.8414v15.0185l-19.0926-30.8477
		l6.7811-6.7879c-6.355-8.5261-3.8887-19.4086,4.6443-26.8423l12.8818,12.8818
		C977.253,246.9365,970.2109,264.7993,959.9055,271.8414z"/>
	<path fill="none" stroke="#808080" stroke-width="0.5" stroke-miterlimit="10" d="M1047.6737,207.7758v14.9635l-15.9391,2.4183
		l-17.382-17.3819h-34.3516v-12.023h53.8357c0.0619,3.8611,0.7283,7.8871,2.1573,12.023H1047.6737z"/>
	<polygon fill="none" stroke="#808080" stroke-width="0.5" stroke-miterlimit="10" points="1031.7346,225.1576 1003.0717,229.5066 
		1003.0717,207.7758 1014.3527,207.7758 	"/>
	<polygon fill="none" stroke="#808080" stroke-width="0.5" stroke-miterlimit="10" points="1003.0717,207.7758 1003.0717,229.5066 
		980.0011,233.0035 980.0011,207.7758 	"/>
	<path fill="none" stroke="#808080" stroke-width="0.5" stroke-miterlimit="10" d="M292.8004,132.0437v77.28h-111.3V34.8337h26.45
		v42.92l63.99,63.99c2.21,1.86,5.06,2.99,8.18,2.99C287.1204,144.7337,292.8004,139.0537,292.8004,132.0437z"/>
	<path fill="none" stroke="#808080" stroke-width="0.5" stroke-miterlimit="10" d="M633.3185,90.8088
		c-7.3178,21.8343-5.6384,46.5551,5.7808,68.1056c0.4973,0.9251,0.7634,1.4446,1.1719,2.1639
		c1.4222,2.8373,2.8306,5.6061,4.1428,8.3955h-87.8987l-6.1215-55.306l-8.7734-79.3383h35.5745l77.1536,22.7064
		C644.5239,66.9551,637.4681,78.4147,633.3185,90.8088z"/>
	<path fill="none" stroke="#808080" stroke-width="0.5" stroke-miterlimit="10" d="M633.3185,90.8088
		c-7.3178,21.8343-5.6384,46.5551,5.7808,68.1056c0.4973,0.9251,0.7634,1.4446,1.1719,2.1639
		c1.4222,2.8373,2.8306,5.6061,4.1428,8.3955c2.3359,4.9191,4.3901,9.8864,5.723,15.4032c0.2611,1.0856,0.5015,2.1711,0.7145,3.2634
		h61.2076v-52.3448c0-4.2321,0.6526-8.3199,1.855-12.1604l-32.8333-32.8264C681.0808,90.8088,633.3185,90.8088,633.3185,90.8088z"/>
</g>
<g id="Admin1Lines">
	
		<line fill="none" stroke="#808080" stroke-width="0.1" stroke-linecap="round" stroke-miterlimit="10" x1="271.9402" y1="141.7452" x2="270.4156" y2="140.2207"/>
	
		<line fill="none" stroke="#808080" stroke-width="0.1" stroke-linecap="round" stroke-miterlimit="10" x1="207.9501" y1="77.7552" x2="270.4156" y2="140.2207"/>
	
		<line fill="none" stroke="#808080" stroke-width="0.1" stroke-linecap="round" stroke-miterlimit="10" x1="416.3472" y1="114.1678" x2="416.3472" y2="34.8295"/>
	
		<line fill="none" stroke="#808080" stroke-width="0.1" stroke-linecap="round" stroke-miterlimit="10" x1="331.2722" y1="338.8269" x2="435.0139" y2="338.8269"/>
	
		<line fill="none" stroke="#808080" stroke-width="0.1" stroke-linecap="round" stroke-miterlimit="10" x1="331.2722" y1="338.8269" x2="331.2722" y2="472.1109"/>
	
		<line fill="none" stroke="#808080" stroke-width="0.1" stroke-linecap="round" stroke-miterlimit="10" x1="233.3703" y1="446.3472" x2="233.3703" y2="393.4459"/>
	
		<line fill="none" stroke="#808080" stroke-width="0.1" stroke-linecap="round" stroke-miterlimit="10" x1="233.3703" y1="393.4459" x2="233.3703" y2="338.8269"/>
	<polyline fill="none" stroke="#808080" stroke-width="0.1" stroke-linecap="round" stroke-miterlimit="10" points="
		128.9416,209.3216 128.9416,289.0172 233.3703,393.4459 	"/>
	
		<line fill="none" stroke="#808080" stroke-width="0.1" stroke-linecap="round" stroke-miterlimit="10" x1="181.4995" y1="113.4808" x2="39.7993" y2="113.4808"/>
	
		<line fill="none" stroke="#808080" stroke-width="0.1" stroke-linecap="round" stroke-miterlimit="10" x1="128.9416" y1="209.3216" x2="39.8818" y2="209.3216"/>
	
		<line fill="none" stroke="#808080" stroke-width="0.1" stroke-linecap="round" stroke-miterlimit="10" x1="128.9416" y1="209.3216" x2="181.4995" y2="209.3216"/>
	<path fill="none" stroke="#808080" stroke-width="0.1" stroke-linecap="round" stroke-miterlimit="10" d="M271.9402,141.7452
		c-0.5494-0.4601-1.0643-0.9751-1.5245-1.5245"/>
	<polyline fill="none" stroke="#808080" stroke-width="0.1" stroke-linecap="round" stroke-miterlimit="10" points="
		270.4156,140.2207 270.415,140.22 207.9501,77.7552 	"/>
	
		<line fill="none" stroke="#808080" stroke-width="0.1" stroke-linecap="round" stroke-miterlimit="10" x1="181.4995" y1="34.8295" x2="181.4995" y2="113.4808"/>
	<path fill="none" stroke="#808080" stroke-width="0.1" stroke-linecap="round" stroke-miterlimit="10" d="M285.0717,143.7285
		c4.5162-1.9182,7.6883-6.3788,7.7286-11.585"/>
	<path fill="none" stroke="#808080" stroke-width="0.1" stroke-linecap="round" stroke-miterlimit="10" d="M280.1193,144.7336
		c1.7573-0.0005,3.4307-0.3588,4.9525-1.0051"/>
	<path fill="none" stroke="#808080" stroke-width="0.1" stroke-linecap="round" stroke-miterlimit="10" d="M292.8054,132.0444
		c0,0.0334-0.0048,0.0657-0.005,0.0991"/>
	<path fill="none" stroke="#808080" stroke-width="0.1" stroke-linecap="round" stroke-miterlimit="10" d="M271.9402,141.7452
		c2.2054,1.8618,5.0634,2.9886,8.1757,2.9886c0.0012,0,0.0023-0.0002,0.0034-0.0002"/>
	
		<line fill="none" stroke="#808080" stroke-width="0.1" stroke-linecap="round" stroke-miterlimit="10" x1="207.9501" y1="77.7552" x2="207.9501" y2="34.8337"/>
	
		<line fill="none" stroke="#808080" stroke-width="0.1" stroke-linecap="round" stroke-miterlimit="10" x1="207.9501" y1="34.8295" x2="207.9501" y2="34.8337"/>
	
		<line fill="none" stroke="#808080" stroke-width="0.1" stroke-linecap="round" stroke-miterlimit="10" x1="181.4995" y1="209.3216" x2="181.5004" y2="209.3216"/>
	
		<line fill="none" stroke="#808080" stroke-width="0.1" stroke-linecap="round" stroke-miterlimit="10" x1="181.5004" y1="209.3216" x2="233.3703" y2="209.3216"/>
	
		<line fill="none" stroke="#808080" stroke-width="0.1" stroke-linecap="round" stroke-miterlimit="10" x1="181.4995" y1="113.4808" x2="181.4995" y2="209.3216"/>
	
		<line fill="none" stroke="#808080" stroke-width="0.1" stroke-linecap="round" stroke-miterlimit="10" x1="331.2722" y1="338.8269" x2="331.2722" y2="235.628"/>
	
		<line fill="none" stroke="#808080" stroke-width="0.1" stroke-linecap="round" stroke-miterlimit="10" x1="331.2722" y1="338.8269" x2="233.3703" y2="338.8269"/>
	
		<line fill="none" stroke="#808080" stroke-width="0.1" stroke-linecap="round" stroke-miterlimit="10" x1="233.3703" y1="209.3237" x2="233.3703" y2="338.8269"/>
	
		<line fill="none" stroke="#808080" stroke-width="0.1" stroke-linecap="round" stroke-miterlimit="10" x1="233.3703" y1="209.3237" x2="233.3703" y2="209.3216"/>
	
		<line fill="none" stroke="#808080" stroke-width="0.1" stroke-linecap="round" stroke-miterlimit="10" x1="292.8004" y1="209.3216" x2="233.3703" y2="209.3216"/>
	
		<line fill="none" stroke="#808080" stroke-width="0.1" stroke-linecap="round" stroke-miterlimit="10" x1="292.8004" y1="209.3216" x2="292.8054" y2="209.3216"/>
	
		<line fill="none" stroke="#808080" stroke-width="0.1" stroke-linecap="round" stroke-miterlimit="10" x1="292.8054" y1="132.0444" x2="416.3472" y2="132.0444"/>
	
		<line fill="none" stroke="#808080" stroke-width="0.1" stroke-linecap="round" stroke-miterlimit="10" x1="416.3472" y1="235.628" x2="331.2722" y2="235.628"/>
	
		<line fill="none" stroke="#808080" stroke-width="0.1" stroke-linecap="round" stroke-miterlimit="10" x1="292.8054" y1="132.0444" x2="292.8054" y2="209.3216"/>
	<polyline fill="none" stroke="#808080" stroke-width="0.1" stroke-linecap="round" stroke-miterlimit="10" points="
		331.2722,235.628 292.8054,235.628 292.8054,209.3216 	"/>
	<polyline fill="none" stroke="#808080" stroke-width="0.1" stroke-linecap="round" stroke-miterlimit="10" points="
		435.0139,351.1935 435.0139,458.7138 374.8505,458.7138 	"/>
	
		<line fill="none" stroke="#808080" stroke-width="0.1" stroke-linecap="round" stroke-miterlimit="10" x1="598.1837" y1="541.0544" x2="598.1837" y2="443.9426"/>
	
		<line fill="none" stroke="#808080" stroke-width="0.1" stroke-linecap="round" stroke-miterlimit="10" x1="416.3472" y1="132.0444" x2="416.3472" y2="114.1678"/>
	
		<line fill="none" stroke="#808080" stroke-width="0.1" stroke-linecap="round" stroke-miterlimit="10" x1="550.3938" y1="114.1678" x2="416.3472" y2="114.1678"/>
	
		<line fill="none" stroke="#808080" stroke-width="0.1" stroke-linecap="round" stroke-miterlimit="10" x1="416.3472" y1="189.7412" x2="416.3472" y2="132.0444"/>
	
		<line fill="none" stroke="#808080" stroke-width="0.1" stroke-linecap="round" stroke-miterlimit="10" x1="550.3938" y1="114.1678" x2="541.6204" y2="34.8295"/>
	
		<line fill="none" stroke="#808080" stroke-width="0.1" stroke-linecap="round" stroke-miterlimit="10" x1="556.5153" y1="169.4738" x2="550.3938" y2="114.1678"/>
	
		<line fill="none" stroke="#808080" stroke-width="0.1" stroke-linecap="round" stroke-miterlimit="10" x1="709.943" y1="389.3237" x2="767.1933" y2="389.3237"/>
	<polyline fill="none" stroke="#808080" stroke-width="0.1" stroke-linecap="round" stroke-miterlimit="10" points="
		767.1933,509.2106 730.7806,509.2106 730.7806,524.0985 	"/>
	<path fill="none" stroke="#808080" stroke-width="0.1" stroke-linecap="round" stroke-miterlimit="10" d="M632.1093,443.9426
		c-6.2107,21.8407-3.1809,45.6807,8.2032,65.2679h53.8289v14.8879"/>
	
		<line fill="none" stroke="#808080" stroke-width="0.1" stroke-linecap="round" stroke-miterlimit="10" x1="653.2217" y1="389.3237" x2="709.943" y2="389.3237"/>
	
		<line fill="none" stroke="#808080" stroke-width="0.1" stroke-linecap="round" stroke-miterlimit="10" x1="709.943" y1="389.3237" x2="709.943" y2="524.0985"/>
	
		<line fill="none" stroke="#808080" stroke-width="0.1" stroke-linecap="round" stroke-miterlimit="10" x1="767.1933" y1="389.3237" x2="782.8782" y2="389.3237"/>
	
		<line fill="none" stroke="#808080" stroke-width="0.1" stroke-linecap="round" stroke-miterlimit="10" x1="867.2525" y1="509.2106" x2="767.1933" y2="509.2106"/>
	
		<line fill="none" stroke="#808080" stroke-width="0.1" stroke-linecap="round" stroke-miterlimit="10" x1="767.1933" y1="389.3237" x2="767.1933" y2="509.2106"/>
	
		<line fill="none" stroke="#808080" stroke-width="0.1" stroke-linecap="round" stroke-miterlimit="10" x1="872.9548" y1="467.2605" x2="795.018" y2="389.3237"/>
	
		<line fill="none" stroke="#808080" stroke-width="0.1" stroke-linecap="round" stroke-miterlimit="10" x1="782.8782" y1="389.3237" x2="833.375" y2="338.8269"/>
	
		<line fill="none" stroke="#808080" stroke-width="0.1" stroke-linecap="round" stroke-miterlimit="10" x1="782.8782" y1="389.3237" x2="795.018" y2="389.3237"/>
	<polyline fill="none" stroke="#808080" stroke-width="0.1" stroke-linecap="round" stroke-miterlimit="10" points="
		901.2125,417.8835 872.6525,389.3237 795.018,389.3237 	"/>
	<polyline fill="none" stroke="#808080" stroke-width="0.1" stroke-linecap="round" stroke-miterlimit="10" points="
		584.9721,426.657 598.1837,430.202 598.1837,443.9426 	"/>
	
		<line fill="none" stroke="#808080" stroke-width="0.1" stroke-linecap="round" stroke-miterlimit="10" x1="632.1093" y1="443.9426" x2="598.1837" y2="443.9426"/>
	<path fill="none" stroke="#808080" stroke-width="0.1" stroke-linecap="round" stroke-miterlimit="10" d="M643.3972,338.8269
		c1.6901,3.0436,3.3046,6.1215,4.6031,9.4124c5.139,12.9918,6.9115,27.2271,5.2214,41.0844"/>
	<path fill="none" stroke="#808080" stroke-width="0.1" stroke-linecap="round" stroke-miterlimit="10" d="M653.2217,389.3237
		c-0.2679,2.1985-0.6183,4.3901-1.0649,6.5681c-1.5871,7.7634-4.2939,15.2933-8.004,22.2941
		c-3.442,6.4856-7.3512,12.4628-9.9482,19.3949c-0.79,2.0954-1.4839,4.2184-2.0955,6.3619"/>
	
		<line fill="none" stroke="#808080" stroke-width="0.1" stroke-linecap="round" stroke-miterlimit="10" x1="435.0139" y1="338.8269" x2="455.2812" y2="338.8269"/>
	
		<line fill="none" stroke="#808080" stroke-width="0.1" stroke-linecap="round" stroke-miterlimit="10" x1="435.0139" y1="338.8269" x2="435.0139" y2="351.1935"/>
	<polyline fill="none" stroke="#808080" stroke-width="0.1" stroke-linecap="round" stroke-miterlimit="10" points="
		584.9721,426.657 494.442,402.3842 494.442,351.1935 435.0139,351.1935 	"/>
	
		<line fill="none" stroke="#808080" stroke-width="0.1" stroke-linecap="round" stroke-miterlimit="10" x1="584.9721" y1="426.657" x2="575.2506" y2="338.8269"/>
	
		<line fill="none" stroke="#808080" stroke-width="0.1" stroke-linecap="round" stroke-miterlimit="10" x1="455.2812" y1="261.1924" x2="455.2812" y2="338.8269"/>
	
		<line fill="none" stroke="#808080" stroke-width="0.1" stroke-linecap="round" stroke-miterlimit="10" x1="575.2506" y1="338.8269" x2="455.2812" y2="338.8269"/>
	<polyline fill="none" stroke="#808080" stroke-width="0.1" stroke-linecap="round" stroke-miterlimit="10" points="
		455.2812,261.1924 455.2812,235.628 416.3472,235.628 	"/>
	
		<line fill="none" stroke="#808080" stroke-width="0.1" stroke-linecap="round" stroke-miterlimit="10" x1="416.3472" y1="189.7412" x2="416.3472" y2="235.628"/>
	
		<line fill="none" stroke="#808080" stroke-width="0.1" stroke-linecap="round" stroke-miterlimit="10" x1="558.7549" y1="189.7412" x2="416.3472" y2="189.7412"/>
	
		<line fill="none" stroke="#808080" stroke-width="0.1" stroke-linecap="round" stroke-miterlimit="10" x1="455.2812" y1="261.1924" x2="566.6627" y2="261.1924"/>
	
		<line fill="none" stroke="#808080" stroke-width="0.1" stroke-linecap="round" stroke-miterlimit="10" x1="643.3972" y1="338.8269" x2="575.2506" y2="338.8269"/>
	
		<line fill="none" stroke="#808080" stroke-width="0.1" stroke-linecap="round" stroke-miterlimit="10" x1="566.6627" y1="261.1924" x2="575.2506" y2="338.8269"/>
	
		<line fill="none" stroke="#808080" stroke-width="0.1" stroke-linecap="round" stroke-miterlimit="10" x1="566.6627" y1="261.1924" x2="565.1787" y2="247.7953"/>
	
		<line fill="none" stroke="#808080" stroke-width="0.1" stroke-linecap="round" stroke-miterlimit="10" x1="556.5153" y1="169.4738" x2="558.7549" y2="189.7412"/>
	
		<line fill="none" stroke="#808080" stroke-width="0.1" stroke-linecap="round" stroke-miterlimit="10" x1="556.5153" y1="169.4738" x2="644.414" y2="169.4738"/>
	
		<line fill="none" stroke="#808080" stroke-width="0.1" stroke-linecap="round" stroke-miterlimit="10" x1="558.7549" y1="189.7412" x2="565.1787" y2="247.7953"/>
	
		<line fill="none" stroke="#808080" stroke-width="0.1" stroke-linecap="round" stroke-miterlimit="10" x1="640.5872" y1="247.7953" x2="565.1787" y2="247.7953"/>
	<path fill="none" stroke="#808080" stroke-width="0.1" stroke-linecap="round" stroke-miterlimit="10" d="M640.5872,247.7953
		c-2.2328,4.0672-4.4725,8.1345-6.1696,12.4902c-5.771,14.7712-7.1932,31.1569-4.129,46.7112
		c1.5046,7.6742,4.1085,15.1284,7.6948,22.0743"/>
	<path fill="none" stroke="#808080" stroke-width="0.1" stroke-linecap="round" stroke-miterlimit="10" d="M640.5872,247.7953
		c1.9443-3.5383,3.8749-7.0833,5.4413-10.8276c3.4146-8.1619,5.51-16.8529,6.2039-25.6743
		c0.6046-7.7291,0.1443-15.5475-1.381-23.153"/>
	
		<line fill="none" stroke="#808080" stroke-width="0.1" stroke-linecap="round" stroke-miterlimit="10" x1="719.2729" y1="292.4454" x2="719.2729" y2="214.1514"/>
	<path fill="none" stroke="#808080" stroke-width="0.1" stroke-linecap="round" stroke-miterlimit="10" d="M644.414,169.4738
		c2.3359,4.9191,4.3901,9.8864,5.723,15.4032c0.261,1.0855,0.5015,2.1711,0.7145,3.2634"/>
	
		<line fill="none" stroke="#808080" stroke-width="0.1" stroke-linecap="round" stroke-miterlimit="10" x1="712.0591" y1="188.1404" x2="650.8514" y2="188.1404"/>
	
		<line fill="none" stroke="#808080" stroke-width="0.1" stroke-linecap="round" stroke-miterlimit="10" x1="713.9141" y1="123.6351" x2="681.0808" y2="90.8088"/>
	
		<line fill="none" stroke="#808080" stroke-width="0.1" stroke-linecap="round" stroke-miterlimit="10" x1="742.2541" y1="209.4383" x2="770.3605" y2="209.4383"/>
	
		<line fill="none" stroke="#808080" stroke-width="0.1" stroke-linecap="round" stroke-miterlimit="10" x1="770.3605" y1="269.423" x2="770.3605" y2="209.4383"/>
	
		<line fill="none" stroke="#808080" stroke-width="0.1" stroke-linecap="round" stroke-miterlimit="10" x1="809.6724" y1="209.4383" x2="770.3605" y2="209.4383"/>
	
		<line fill="none" stroke="#808080" stroke-width="0.1" stroke-linecap="round" stroke-miterlimit="10" x1="851.6981" y1="225.9683" x2="851.6981" y2="203.6811"/>
	
		<line fill="none" stroke="#808080" stroke-width="0.1" stroke-linecap="round" stroke-miterlimit="10" x1="643.3972" y1="338.8269" x2="780.9339" y2="338.8269"/>
	<path fill="none" stroke="#808080" stroke-width="0.1" stroke-linecap="round" stroke-miterlimit="10" d="M637.9834,329.0711
		c0.0412,0.0824,0.0824,0.158,0.1237,0.2405c1.6832,3.2427,3.5313,6.355,5.2901,9.5153"/>
	
		<line fill="none" stroke="#808080" stroke-width="0.1" stroke-linecap="round" stroke-miterlimit="10" x1="719.2729" y1="292.4454" x2="637.9834" y2="329.0711"/>
	
		<line fill="none" stroke="#808080" stroke-width="0.1" stroke-linecap="round" stroke-miterlimit="10" x1="719.2729" y1="292.4454" x2="770.3605" y2="269.423"/>
	<path fill="none" stroke="#808080" stroke-width="0.1" stroke-linecap="round" stroke-miterlimit="10" d="M770.3605,269.423
		c7.8665,5.2764,17.2376,8.4642,27.3438,8.7872"/>
	
		<line fill="none" stroke="#808080" stroke-width="0.1" stroke-linecap="round" stroke-miterlimit="10" x1="780.9339" y1="338.8269" x2="833.375" y2="338.8269"/>
	
		<line fill="none" stroke="#808080" stroke-width="0.1" stroke-linecap="round" stroke-miterlimit="10" x1="926.1859" y1="338.8269" x2="833.375" y2="338.8269"/>
	
		<line fill="none" stroke="#808080" stroke-width="0.1" stroke-linecap="round" stroke-miterlimit="10" x1="780.9339" y1="338.8269" x2="813.98" y2="305.7808"/>
	
		<line fill="none" stroke="#808080" stroke-width="0.1" stroke-linecap="round" stroke-miterlimit="10" x1="864.4081" y1="261.6527" x2="935.1724" y2="261.6527"/>
	<path fill="none" stroke="#808080" stroke-width="0.1" stroke-linecap="round" stroke-miterlimit="10" d="M921.0057,318.271
		l-11.4184-11.4185c0.5634-2.226,0.8519-4.5619,0.8519-6.9597c0-11.3016-6.4993-21.0919-15.9734-25.8324"/>
	<path fill="none" stroke="#808080" stroke-width="0.1" stroke-linecap="round" stroke-miterlimit="10" d="M851.6981,225.9683
		c0,28.8691-23.4071,52.2763-52.2762,52.2763c-0.5771,0-1.1473-0.0069-1.7176-0.0344"/>
	<polyline fill="none" stroke="#808080" stroke-width="0.1" stroke-linecap="round" stroke-miterlimit="10" points="
		864.4081,261.6527 851.6981,261.6527 851.6981,225.9683 	"/>
	
		<line fill="none" stroke="#808080" stroke-width="0.1" stroke-linecap="round" stroke-miterlimit="10" x1="797.7043" y1="278.2102" x2="813.98" y2="305.7808"/>
	<polyline fill="none" stroke="#808080" stroke-width="0.1" stroke-linecap="round" stroke-miterlimit="10" points="
		894.4658,274.0605 820.2321,316.3748 813.98,305.7808 	"/>
	<path fill="none" stroke="#808080" stroke-width="0.1" stroke-linecap="round" stroke-miterlimit="10" d="M864.4081,261.6527
		v15.0529c4.7955-3.5657,10.7383-5.668,17.1758-5.668c4.6306,0,9.007,1.0923,12.8818,3.0229"/>
	<polyline fill="none" stroke="#808080" stroke-width="0.1" stroke-linecap="round" stroke-miterlimit="10" points="
		1027.0352,112.6426 1027.0352,161.889 1039.4774,174.338 	"/>
	
		<line fill="none" stroke="#808080" stroke-width="0.1" stroke-linecap="round" stroke-miterlimit="10" x1="991.4126" y1="195.7527" x2="1011.2061" y2="126.5343"/>
	<polyline fill="none" stroke="#808080" stroke-width="0.1" stroke-linecap="round" stroke-miterlimit="10" points="
		952.2382,222.3821 939.2945,209.4383 864.0646,209.4383 864.0646,196.323 	"/>
	
		<line fill="none" stroke="#808080" stroke-width="0.1" stroke-linecap="round" stroke-miterlimit="10" x1="980.0011" y1="126.5343" x2="980.0011" y2="195.7527"/>
	
		<line fill="none" stroke="#808080" stroke-width="0.1" stroke-linecap="round" stroke-miterlimit="10" x1="935.1724" y1="306.5365" x2="935.1724" y2="261.6527"/>
	
		<line fill="none" stroke="#808080" stroke-width="0.1" stroke-linecap="round" stroke-miterlimit="10" x1="935.1724" y1="306.5365" x2="951.9908" y2="306.5365"/>
	<path fill="none" stroke="#808080" stroke-width="0.1" stroke-linecap="round" stroke-miterlimit="10" d="M952.2382,222.3821
		c-8.533,7.4337-10.9993,18.3162-4.6443,26.8423l-6.7811,6.7879"/>
	
		<line fill="none" stroke="#808080" stroke-width="0.1" stroke-linecap="round" stroke-miterlimit="10" x1="952.2382" y1="222.3821" x2="965.1201" y2="235.2639"/>
	
		<line fill="none" stroke="#808080" stroke-width="0.1" stroke-linecap="round" stroke-miterlimit="10" x1="991.4126" y1="195.7527" x2="980.0011" y2="195.7527"/>
	
		<line fill="none" stroke="#808080" stroke-width="0.1" stroke-linecap="round" stroke-miterlimit="10" x1="991.4126" y1="195.7527" x2="1033.8369" y2="195.7527"/>
	
		<line fill="none" stroke="#808080" stroke-width="0.1" stroke-linecap="round" stroke-miterlimit="10" x1="980.0011" y1="195.7527" x2="980.0011" y2="207.7757"/>
	<polyline fill="none" stroke="#808080" stroke-width="0.1" stroke-linecap="round" stroke-miterlimit="10" points="
		1003.0717,207.7757 1014.3527,207.7757 1031.7346,225.1576 	"/>
	
		<line fill="none" stroke="#808080" stroke-width="0.1" stroke-linecap="round" stroke-miterlimit="10" x1="980.0011" y1="207.7757" x2="980.0011" y2="233.0035"/>
	
		<line fill="none" stroke="#808080" stroke-width="0.1" stroke-linecap="round" stroke-miterlimit="10" x1="980.0011" y1="207.7757" x2="1003.0717" y2="207.7757"/>
	
		<line fill="none" stroke="#808080" stroke-width="0.1" stroke-linecap="round" stroke-miterlimit="10" x1="1003.0717" y1="229.5066" x2="1003.0717" y2="207.7757"/>
	<polyline fill="none" stroke="#808080" stroke-width="0.1" stroke-linecap="round" stroke-miterlimit="10" points="
		233.3703,209.3237 292.8004,209.3237 292.8004,209.3216 	"/>
	<path fill="none" stroke="#808080" stroke-width="0.1" stroke-linecap="round" stroke-miterlimit="10" d="M285.0717,143.7285
		c4.5413-1.9302,7.7286-6.434,7.7286-11.6848v0.0998"/>
	<path fill="none" stroke="#808080" stroke-width="0.1" stroke-linecap="round" stroke-miterlimit="10" d="M280.1193,144.7336
		c-3.1196-0.0002-5.9691-1.1302-8.1789-2.9899l-63.99-63.99v-42.92h-0.0002"/>
	<polyline fill="none" stroke="#808080" stroke-width="0.1" stroke-linecap="round" stroke-miterlimit="10" points="
		181.5004,209.3216 181.5004,209.3237 233.3703,209.3237 	"/>
	
		<line fill="none" stroke="#808080" stroke-width="0.1" stroke-linecap="round" stroke-miterlimit="10" x1="292.8004" y1="209.3216" x2="292.8004" y2="132.1435"/>
	<path fill="none" stroke="#808080" stroke-width="0.1" stroke-linecap="round" stroke-miterlimit="10" d="M280.1193,144.7336
		l0.0011,0.0001c1.7567,0,3.4298-0.3585,4.9514-1.0052"/>
	<path fill="none" stroke="#808080" stroke-width="0.1" stroke-linecap="round" stroke-miterlimit="10" d="M644.414,169.4738
		c-1.3123-2.7894-2.7206-5.5582-4.1428-8.3955c-0.4084-0.7193-0.6746-1.2388-1.1719-2.1639
		c-11.4192-21.5505-13.0986-46.2713-5.7808-68.1056"/>
</g>
<g id="Land">
	<path fill="none" stroke="#000000" stroke-width="2" stroke-linecap="round" stroke-linejoin="round" stroke-miterlimit="10" d="
		M1097.8818,85.3263V34.8295h-38.9684l-31.8783,77.8131c-8.3885,0.8381-13.5413,6.9459-15.8291,13.8917h-31.205h-18.8383
		c-15.3415,0-39.3876,28.285-39.3876,43.283h-44.1417c0,11.4185-5.6267,20.1712-13.5688,26.5057
		c-3.7236,2.9816-7.9628,5.4206-12.3666,7.358c-8.8833,3.9092-18.4605,5.7573-25.9354,5.7573h-16.0903v-51.8708h-18.0345
		c2.858-4.129,4.5275-9.1443,4.5275-14.5444c0-14.1666-11.4871-25.6469-25.6537-25.6469s-25.6469,11.4803-25.6469,25.6469v57.5388
		c0,3.2703-0.955,6.3207-2.6107,8.8764c-2.9199,4.5276-8.004,7.523-13.7956,7.523c-3.4008,0-6.5612-1.0374-9.1856-2.8099
		c-4.3489-2.9474-7.2138-7.9352-7.2138-13.5895v-12.4216v-52.3448c0-4.2321,0.6526-8.3199,1.855-12.1604
		c2.4527-7.791,7.1932-14.5719,13.4383-19.546h55.6426l-13.2872-13.2803h-88.627h-47.7623
		c4.1496-12.394,11.2054-23.8538,21.03-33.2729l-77.1536-22.7063h-35.5745H416.3472H207.9501h-26.4507H75.2914l6.9871,12.6963
		H39.7993v65.955v88.8674c0,2.329,0.0275,4.6581,0.0825,6.9734c1.1336,46.8761,13.6445,90.9285,34.8874,129.5053
		c24.4858,44.4853,60.5755,81.6812,104.1882,107.5203h54.4129l65.8725,25.7637h32.0294h17.5193v-13.3971h26.0591l41.9639,70.9634
		l17.1964-9.5909c21.8889-11.9062,35.5264,3.7237,43.7708,17.4643l30.4011,53.2449c10.0444,15.7124,23.1873,23.0156,41.5654,18.2064
		c1.9031-31.5279,21.882-57.2022,48.4357-67.9474c21.3254-8.6291,46.8968-7.6398,70.7642,7.6604h25.1934v-24.6163h15.8017h20.8376
		h29.5424c36.4126,0,65.955,20.9545,75.8001,28.8553c4.3558,44.8837,33.4378,74.1993,58.7411,88.5102
		c27.3301-28.2302,15.149-54.9418,0.371-78.6376c-7.5779-12.6139-14.3315-22.7888-25.537-45.557
		c-0.0068-0.0137-0.0137-0.0275-0.0206-0.0413c-0.9893-2.5969-1.7999-5.2695-2.4251-8.0176
		c-0.9825-4.3077-1.4978-8.7939-1.4978-13.3971c0-10.3329,2.6039-20.0613,7.2001-28.553c0.4467-0.845,0.9207-1.6626,1.4153-2.4802
		l0.1786-0.2955l26.6637-46.6013l34.853-60.8846c-3.2909-4.6238-6.9391-10.7452-9.8796-18.172
		c-2.3771-6.0253-4.3008-12.9093-5.1802-20.5559c-1.3123-11.4254-0.316-24.5545,4.8917-39.0784v36.6188l9.275-9.2749v37.6149
		c10.278-12.8475,15.6506-25.269,16.8185-37.6149c1.4084-14.8811-3.2909-29.6454-12.8681-44.8838h-3.9504l5.6404-5.6405
		l19.0927,30.8477v-15.0185c10.3055-7.0421,17.3475-24.9049,5.2146-36.5775l14.881-2.2604l23.0706-3.4969l28.663-4.3489
		l15.939-2.4183v-14.9636h-11.6794c-1.4291-4.1359-2.0955-8.1619-2.1572-12.023c-0.1375-7.9077,2.2258-15.1628,5.6405-21.4147
		c5.3794-9.8658,13.3765-17.2376,18.33-20.7484l60.2526-35.595L1097.8818,85.3263z"/>
</g>
<g id="MetaData">
	<text transform="matrix(1 0 0 1 940.6196 467.2603)"><tspan x="0" y="0" fill="#221F1F" font-family="'ACaslonPro-Italic'" font-size="31.9907px">Geomotional</tspan><tspan x="17.8667" y="25.5928" fill="#221F1F" font-family="'ACaslonPro-Regular'" font-size="21.3272px">a linework set</tspan><tspan x="-16.0859" y="51.1855" fill="#221F1F" font-family="'ACaslonPro-Regular'" font-size="21.3272px">from </tspan><tspan x="31.0249" y="51.1855" fill="#221F1F" font-family="'ACaslonPro-Italic'" font-size="21.3272px">Project Linework</tspan></text>
	<text transform="matrix(1 0 0 1 100.0527 557.5687)"><tspan x="0" y="0" fill="#221F1F" font-family="'ACaslonPro-Regular'" font-size="8.8172px">(30N, 120W)</tspan><tspan x="-9.0151" y="12" fill="#221F1F" font-family="'ACaslonPro-Regular'" font-size="8.8172px">Gall Stereographic</tspan><tspan x="1.084" y="24" fill="#221F1F" font-family="'ACaslonPro-Regular'" font-size="8.8172px">1:12,000,000</tspan></text>
	<text transform="matrix(1 0 0 1 981.7681 539.8511)"><tspan x="0" y="0" fill="#221F1F" font-family="'ACaslonPro-Regular'" font-size="5.8781px">Traced by Daniel P. Huffman</tspan><tspan x="21.8779" y="7.0537" fill="#221F1F" font-family="'ACaslonPro-Regular'" font-size="5.8781px">Version 1.0</tspan></text>
	<polyline fill="none" stroke="#000000" stroke-linecap="round" stroke-linejoin="round" stroke-miterlimit="10" points="
		124.3304,541.2337 124.3304,540.2437 124.3304,528.2537 124.3304,516.2637 124.3304,516.2337 124.3304,504.1937 124.3304,492.1237 
		124.3304,491.2337 	"/>
	<polyline fill="none" stroke="#000000" stroke-linecap="round" stroke-linejoin="round" stroke-miterlimit="10" points="
		149.3304,516.2637 142.9404,516.2637 133.6404,516.2637 124.3404,516.2637 124.3304,516.2637 115.0404,516.2637 105.7504,516.2637 
		99.3304,516.2637 	"/>
</g>
</svg>
