<?xml version="1.0" encoding="utf-8"?>
<!-- Generator: Adobe Illustrator 22.0.1, SVG Export Plug-In . SVG Version: 6.00 Build 0)  -->
<svg version="1.1" xmlns="http://www.w3.org/2000/svg" xmlns:xlink="http://www.w3.org/1999/xlink" x="0px" y="0px"
	 viewBox="0 0 1706.6104 1806.4414" enable-background="new 0 0 1706.6104 1806.4414" xml:space="preserve">
<g id="Land">
	<g>
		<polygon fill="none" stroke="#000000" stroke-width="1.5" stroke-linecap="round" points="1317.375,1032.0703 
			1338.8301,1024.2627 1317.375,1024.2627 		"/>
		<polygon fill="none" stroke="#000000" stroke-width="1.5" stroke-linecap="round" points="1134.582,901.6865 1134.582,897.6865 
			1124.5342,901.6865 		"/>
		<polygon fill="none" stroke="#000000" stroke-width="1.5" stroke-linecap="round" points="322.4946,741.0547 343.7343,719.8149 
			343.7343,695.4868 310.3266,728.8867 		"/>
		<polygon fill="none" stroke="#000000" stroke-width="1.5" stroke-linecap="round" points="179.6147,670.5752 173.2226,664.1909 
			149.9746,672.6548 176.1191,682.167 179.6147,678.6787 		"/>
		<polygon fill="none" stroke="#000000" stroke-width="1.5" stroke-linecap="round" points="899.3027,419.5107 866.7754,407.6709 
			815.8628,389.1431 760.1826,409.4072 760.1826,432.063 831.2148,457.9189 776.8305,457.9189 776.8305,466.2471 776.8305,472.335 
			801.3266,481.2549 824.2387,481.2549 824.2387,493.3027 864.375,493.3027 908.9424,477.0791 967.791,498.4951 982.6552,457.6709 
			944.1748,443.6709 929.167,402.4307 887.5752,387.2949 		"/>
		<polygon fill="none" stroke="#000000" stroke-width="1.5" stroke-linecap="round" points="838.1504,364.4473 867.2793,353.8467 
			886.6631,346.791 922.8232,346.791 922.8232,323.6631 895.4785,323.6631 875.334,303.5186 867.2793,311.5752 856.4228,322.4307 
			852.1347,326.7271 803.5825,309.0547 772.1987,340.439 		"/>
		<polygon fill="none" stroke="#000000" stroke-width="1.5" stroke-linecap="round" points="784.1504,312.5908 803.3105,293.439 
			783.5346,286.2393 720.6626,309.1187 710.7109,319.0713 738.5268,329.1987 		"/>
		<polygon fill="none" stroke="#000000" stroke-width="1.5" stroke-linecap="round" points="1071.1035,411.5591 1116.7422,365.9189 
			1053.5664,365.9189 1042.9102,376.583 1055.6385,411.5591 		"/>
		<polygon fill="none" stroke="#000000" stroke-width="1.5" stroke-linecap="round" points="1036.0791,408.4473 1024.375,376.2949 
			972.959,376.2949 959.6552,412.8389 1012.4629,432.063 		"/>
		<path fill="none" stroke="#000000" stroke-width="1.5" stroke-linecap="round" d="M1476.7314,914.3623l-11.6602,32.0498
			l-27.4795-10l-11.5801-31.8398l-8.4806,3.08l-3.0303-8.33l25.9297-9.4297l-14.5692-14.5703l-54.5996,19.8802l7.1893-17.3999h18.42
			l9.4707-16.4004h79.1494l20.1299-20.1499h18.3906l16.8397-16.8501v-28.6298l-18.0604-18.0601l-47.5402-17.3101v-22.0898
			l-30.9188-53.5801l-17.2306-29.8301l-21.1709,58.1802l-37.3895-13.6098v-45.46l-96.1992-35.0103l-11.2207,11.21l11.5703,11.5903
			v38.2398l-16.1699,16.1802l22.4199,22.4199v39.8999l-35.3107,20.3901l14.9502,41.0899l-12.9696,12.9702l-6.6699,6.6596
			l-28.0109-28.0097v-44.1099h-59.119v-23.5703l-23.3506-8.5l-23.2695-8.46l-16.3799,5.96l-12.9103-35.48h-18.6093v-38.7597
			l99.6298-99.6104l67.4396-24.5498v-52.2798l-47.0498-17.1201l-11.7197,32.1997l-47.1407-17.1597l-8.7705,24.1001v-16.56
			l-11.1893-11.1802v-22.3799l-30.7695-30.7803h-22.8799l-12.7207,12.7203v25.9497l33.9102,12.3403v24.8701l-17.5596,6.3902v17.0898
			l-27.4502-27.4404v16.3906h-50.1797l-45.4004-16.5205l-34.1699,12.4302v19.3198l-31.0704-11.2998h-38.04v-13.8501l-75.77-27.5796
			h-67.6196l-24.3204-24.3306l-117.7397,42.8604l-53.48-19.46v192.3696h19.1201l8.7198,8.7203l17.6572,17.6577l-0.002,0.0009
			l-26.3759-26.3764h-19.1202V473.2793l-84.8237-30.8721H274.7588l-106.9761,38.9356v26.792l81.7759,29.768v7.0318h-43.9278
			l-20.6562-7.5117L143.207,552.623l28.648,28.6475h64.4956v20.9443l-60.6319,22.0718v26.8882l27.6001,27.6001l21.1919-12.2402
			v35.8403h42.8799l18.936-6.8882l-9.7358,26.648l-146.8482,84.7841l133.7442-48.6796l67.584-67.5845v-20.752l43.1201-24.896
			v14.4883h-18.6162v30.3198l35.3442-12.8642v-24.336l61.8955,22.5284h34.5762l39.2163,39.2158l13.1274-7.5762l58.1045,58.104
			l16.0479,5.7442v-21.6964l-67.2481-67.248l-6.5903,3.8062l6.5928-3.8101l67.25,67.25v21.6997l9.79,26.9203l84.647,84.8463h-0.0015
			v19.024l-18.3999-6.7042v44.9444v66.4238v76.6084l94.0718,94.0547l0.1841-0.0635l30.5923,84.6162l55.3354,55.3281l12.2959-12.2959
			l-55.3276-55.3359l-21.832-59.9844l10.0722-10.0801l15.6001,15.6006l13.5117,37.1201l31.5606,31.5596l-5.961,5.9609
			l45.0889,45.0791l7.96,7.96v59.3047l122.8233,44.7031l19.7207-7.1826l24.0155,24.0146v-21.6074h25.2804l-12.7363-12.7363v-13.4795
			h23.2725l23.7675-23.7686v-34.2959h-40.1836v38.6084l-29.2401,10.6475h-38.9435l-24.8085-68.1602l13.0479-52.5674v-33.4961
			l22.0557-22.0488h15.4882h39.0402v13.9443l22.7596-22.8164h7.504h12.3604h20.9922l8.8643,8.8721l7.6318-7.623l22.1279,22.1279
			l-4.0479,11.1035l14.1357,38.8398l16.3358,6.2002l9.256-25.4238l-22.1436-60.8398l5.832-17.0645l33.0721-33.0723l26.9834-26.9834
			v-20.1289v-11.6152l-5.8242-16l3.4406-9.3682l6.5117,17.8965l2.9677,8.1436l2.9601-8.1436l4.4403-12.1924l-5.8964-16.1924
			l6.5039,6.5049l6.2568-6.2568l5.8555-16.0879l-2.4082-2.4082l3.625-9.5039l9.5039-3.1279h15.6718l11.5674-4.2071l12.1123-4.4091
			v-8.2393l-2.0565,5.8877h-4.4795l-10.1681-10.168l4.6875-4.6875l23.9366-25.0322l25.4473-9.2646l-3.0391-8.3438v-0.001
			l35.2725-12.8369l-29.2598,29.2598l14.5594,14.5498l18.13-18.1299l44.7401-16.29l5.8995-16.1906l-6-16.4697H1476.7314z
			 M1179.5586,941.7432l-15.8243,15.8154l-5.744,15.792l1.1768,3.2324l3.8477,10.5918l-8.04,22.1045h-7.9844l-4.4561-4.5127v-9.208
			v-19.8477l6.8964-18.9443l-6.9364,4.0088l4.1934-11.5361l-0.9121-2.5118v-0.0088l4.4471-12.2158h40.4806l-23.9609-8.7197
			l-2.4952-6.8398l-18.7362,6.8154l-4.5684-13.3115l-33.3916,12.0312l-3.2637-1.1836l-15.2404,5.5518l1.4161-3.8877l20.7119-20.7119
			l11.2264-4.0845l13.1495-13.1602h24.9805l5,13.7203h8.8202l7.6993,21.1601l44.4707,16.1797l17.1396,17.1406v7.8399h-7.8302
			l-15.3895-15.4005v30.7803l-10.84,10.8398l-2.9891-2.9785l0.0018-0.0049l3.9845-10.9287l-5.1847-5.1836l-12.7264,7.3516
			l9.959-27.375L1179.5586,941.7432z M1285.3027,971.2314v11.5674h-17.7441l-14.6797,5.3448l-10.6875,10.6875l-9.0488,9.0478
			l-21.5284,7.832l-13.8719-5.0478l3.2891-9.0205l6.71,2.4394l45.1395-15.9394l-6.83-6.8203l8.9912-9h18.1591l17.3107-6.2998
			L1285.3027,971.2314z"/>
		<polygon fill="none" stroke="#000000" stroke-width="1.5" stroke-linecap="round" points="706.8945,430.8545 734.6147,420.7666 
			734.6147,406.479 803.9428,381.2471 742.3506,358.8311 675.0786,358.8311 694.5029,378.2471 659.6386,413.1108 		"/>
		<polygon fill="none" stroke="#000000" stroke-width="1.5" stroke-linecap="round" points="1143.167,459.7271 1248.4305,459.7271 
			1248.4305,450.2866 1330.375,532.2231 1285.3027,577.3027 1403.4941,620.3188 1403.4941,548.7187 1473.8467,548.7187 
			1357.2383,432.1108 1175.3906,365.9189 1112.375,428.9346 		"/>
		<polygon fill="none" stroke="#000000" stroke-width="1.5" stroke-linecap="round" points="1207.5428,937.0469 1195.8387,937.0469 
			1215.2871,944.7988 		"/>
		<polygon fill="none" stroke="#000000" stroke-width="1.5" stroke-linecap="round" points="1175.7666,560.335 1157.1592,567.1025 
			1157.1592,600.0312 1175.1826,610.4468 1191.8467,593.7827 1228.6385,607.1748 1238.7509,597.063 1217.0468,575.3589 		"/>
		<polygon fill="none" stroke="#000000" stroke-width="1.5" stroke-linecap="round" points="1467.2383,873.8706 1445.8301,866.0791 
			1431.5508,866.0791 1443.6709,878.1987 1467.2383,886.7749 		"/>
		<polygon fill="none" stroke="#000000" stroke-width="1.5" stroke-linecap="round" points="662.791,853.7988 641.3105,845.9829 
			646.3427,859.8071 668.039,881.5029 702.7187,893.7271 		"/>
		<polygon fill="none" stroke="#000000" stroke-width="1.5" stroke-linecap="round" points="599.1108,787.2866 581.1909,787.2866 
			581.1909,813.1509 618.6709,826.5347 599.1108,806.9751 		"/>
		<polygon fill="none" stroke="#000000" stroke-width="1.5" stroke-linecap="round" points="1440.7754,935.3184 1454.6621,935.3184 
			1462.6141,927.3672 1444.5342,927.4473 1434.3184,917.5986 		"/>
		<polygon fill="none" stroke="#000000" stroke-width="1.5" stroke-linecap="round" points="1566.0068,875.0791 1531.91,875.0791 
			1542.7186,845.375 1524.8143,845.375 1500.7031,910.3027 1564.4139,910.3027 1572.8945,887.0068 		"/>
	</g>
</g>
<g id="Admin_0_Poly">
	<polygon fill="none" stroke="#000000" stroke-width="1.5" stroke-linecap="round" points="1149.2225,1337.167 1149.2225,1371.4629 
		1125.4551,1395.2314 1102.1826,1395.2314 1102.1826,1408.7109 1114.9189,1421.4473 1089.6385,1421.4473 1089.6385,1443.0547 
		1065.623,1419.04 1045.9023,1426.2227 923.079,1381.5195 923.079,1322.2148 915.1191,1314.2549 870.0302,1269.1758 
		875.9912,1263.2148 844.4306,1231.6553 830.9189,1194.5352 815.3188,1178.9346 805.2466,1189.0146 827.0786,1248.999 
		882.4062,1304.335 870.1103,1316.6309 814.7749,1261.3027 784.1826,1176.6865 784.1826,1176.6787 812.1909,1166.4951 
		812.455,1166.3984 868.1269,1186.6709 879.623,1186.6631 890.7754,1186.6631 890.7754,1174.7832 911.167,1174.7832 
		955.1035,1218.7188 968.6142,1205.2061 1006.2304,1257.375 1029.0947,1265.6953 1016.0468,1318.2627 1040.8553,1386.4229 
		1079.7988,1386.4229 1109.0389,1375.7754 1109.0389,1337.167 	"/>
	<path fill="none" stroke="#000000" stroke-width="1.5" stroke-linecap="round" d="M1352.6141,993.1113l-4.6875,4.6875
		l10.1681,10.168h4.4795l2.0565-5.8877v8.2393l-12.1123,4.4091l-11.5674,4.2071h-15.6718l-9.5039,3.1279l-3.625,9.5039
		l2.4082,2.4082l-5.8555,16.0879l-6.2568,6.2568l-6.5039-6.5049l5.8964,16.1924l-4.4403,12.1924l-2.9601,8.1436l-2.9677-8.1436
		l-6.5117-17.8965l-3.4406,9.3682l5.8242,16v11.6152v20.1289l-26.9834,26.9834l-33.0721,33.0723l-5.832,17.0645l22.1436,60.8398
		l-9.256,25.4238l-16.3358-6.2002l-14.1357-38.8398l4.0479-11.1035l-22.1279-22.1279l-7.6318,7.623l-8.8643-8.8721h-20.9922
		h-12.3604h-7.504l-22.7596,22.8164v-13.9443h-39.0402h-15.4882l-22.0557,22.0488v33.4961l-22.8643-8.3203l-37.6162-52.1689
		l-13.5107,13.5127l-43.9365-43.9355h-20.3916v11.8799H879.623l-11.4961,0.0078l-55.6719-20.2725l-0.2641,0.0967l-28.0083,10.1836
		v0.0078l-0.1841,0.0635l-94.0718-94.0547v-76.6084v-66.4238v-44.9444l18.3999,6.7042v-19.024h73.5039h11.4161h148.2475h79.7041
		h30.0001l3.6006-3.6001l7.752,7.752l48.624,17.6963l-20.7119,20.7119l-1.4161,3.8877l15.2404-5.5518l3.2637,1.1836l33.3916-12.0312
		l4.5684,13.3115l18.7362-6.8154l2.4952,6.8398l23.9609,8.7197h-40.4806l-4.4471,12.2158v0.0088l0.9121,2.5118l-4.1934,11.5361
		l6.9364-4.0088l-6.8964,18.9443v19.8477v9.208l4.4561,4.5127h7.9844l8.04-22.1045l-3.8477-10.5918l-1.1768-3.2324l5.744-15.792
		l15.8243-15.8154l23.0879,8.4004l-9.959,27.375l12.7264-7.3516l5.1847,5.1836l-3.9845,10.9287l-5.584,15.3603l-3.288,9.0235
		l13.8719,5.0478l21.5284-7.832l9.0488-9.0478l10.6875-10.6875l14.6797-5.3448h17.7441v-11.5674l16.8241-16.8242h19.7677h23.5282
		l2.048-5.6162h5.1434l14.6886-40.376l11.12,4.0479l7.7277,2.8164l12.8086,35.1914l3.0391,8.3438l-25.4473,9.2646
		L1352.6141,993.1113z M528.7265,692.0312l-26.3759-26.3764h-19.1202V473.2793l-84.8237-30.8721H274.7588l-106.9761,38.9356v26.792
		l81.7759,29.768v7.0318h-43.9278l-20.6562-7.5117L143.207,552.623l28.648,28.6475h64.4956v20.9443l-60.6319,22.0718v26.8882
		l27.6001,27.6001l21.1919-12.2402v35.8403h42.8799l18.936-6.8882l-9.7358,26.648l-146.8482,84.7841l133.7442-48.6796
		l67.584-67.5845v-20.752l43.1201-24.896v14.4883h-18.6162v30.3198l35.3442-12.8642v-24.336l61.8955,22.5284h34.5762
		l39.2163,39.2158l13.1274-7.5762l58.1045,58.104l16.0479,5.7442v-21.6964l-67.2481-67.248L528.7265,692.0312z M322.4946,741.0547
		l21.2397-21.2398v-24.3281l-33.4077,33.3999L322.4946,741.0547z M179.6147,670.5752l-6.3921-6.3843l-23.248,8.4639l26.1445,9.5122
		l3.4956-3.4883V670.5752z M1134.582,897.6865l-10.0479,4h10.0479V897.6865z M1317.375,1032.0703l21.4551-7.8076h-21.4551V1032.0703
		z"/>
	<path fill="none" stroke="#000000" stroke-width="1.5" stroke-linecap="round" d="M599.1108,806.9751l19.5601,19.5596
		l-37.48-13.3839v-25.8643h17.9199V806.9751z M641.3105,845.9829l5.0322,13.8242l21.6963,21.6958l34.6797,12.2242l-39.9277-39.9283
		L641.3105,845.9829z M1207.5428,937.0469h-11.7041l19.4484,7.752L1207.5428,937.0469z M1566.0068,875.0791H1531.91l10.8086-29.7041
		h-17.9043l-24.1112,64.9277h63.7108l8.4806-23.2959L1566.0068,875.0791z M1440.7754,935.3184h13.8867l7.952-7.9512l-18.08,0.0801
		l-10.2158-9.8488L1440.7754,935.3184z M1467.2383,873.8706l-21.4082-7.7915h-14.2793l12.1201,12.1196l23.5674,8.5762V873.8706z
		 M1071.1035,411.5591l45.6387-45.6402h-63.1758l-10.6562,10.6641l12.7284,34.9761H1071.1035z M899.3027,419.5107l-32.5273-11.8398
		l-50.9126-18.5278l-55.6802,20.2641v22.6558l71.0322,25.8559h-54.3843v8.3282v6.0879l24.4961,8.9199h22.9121v12.0478h40.1363
		l44.5674-16.2236l58.8486,21.416l14.8642-40.8242l-38.4804-14l-15.0078-41.2402l-41.5918-15.1358L899.3027,419.5107z
		 M1036.0791,408.4473l-11.7041-32.1524h-51.416l-13.3038,36.544l52.8077,19.2241L1036.0791,408.4473z M1175.7666,560.335
		l-18.6074,6.7675v32.9287l18.0234,10.4156l16.6641-16.6641l36.7919,13.3921l10.1123-10.1118l-21.7041-21.7041L1175.7666,560.335z
		 M1143.167,459.7271h105.2635v-9.4405l81.9445,81.9365l-45.0723,45.0796l118.1914,43.0161v-71.6001h70.3525l-116.6084-116.6079
		l-181.8477-66.1919l-63.0156,63.0157L1143.167,459.7271z M838.1504,364.4473l29.1289-10.6006l19.3838-7.0557h36.1601v-23.1279
		h-27.3447l-20.1445-20.1445l-8.0547,8.0566l-10.8565,10.8555l-4.2881,4.2964l-48.5522-17.6724l-31.3838,31.3843L838.1504,364.4473z
		 M706.8945,430.8545l27.7202-10.0879V406.479l69.3281-25.2319l-61.5922-22.416h-67.272l19.4243,19.416l-34.8643,34.8637
		L706.8945,430.8545z M784.1504,312.5908l19.1601-19.1518l-19.7759-7.1997l-62.872,22.8794l-9.9517,9.9526l27.8159,10.1274
		L784.1504,312.5908z M1522.791,777.7124l-47.5402-17.3101v-22.0898l-30.9188-53.5801l-17.2306-29.8301l-21.1709,58.1802
		l-37.3895-13.6098v-45.46l-96.1992-35.0103l-11.2207,11.21l11.5703,11.5903v38.2398l-16.1699,16.1802l22.4199,22.4199v39.8999
		l-35.3107,20.3901l14.9502,41.0899l-12.9696,12.9702l-6.6699,6.6596l-28.0109-28.0097v-44.1099h-59.119v-23.5703l-23.3506-8.5
		l-23.2695-8.46l-16.3799,5.96l-12.9103-35.48h-18.6093v-38.7597l99.6298-99.6104l67.4396-24.5498v-52.2798l-47.0498-17.1201
		l-11.7197,32.1997l-47.1407-17.1597l-8.7705,24.1001v-16.56l-11.1893-11.1802v-22.3799l-30.7695-30.7803h-22.8799l-12.7207,12.7203
		v25.9497l33.9102,12.3403v24.8701l-17.5596,6.3902v17.0898l-27.4502-27.4404v16.3906h-50.1797l-45.4004-16.5205l-34.1699,12.4302
		v19.3198l-31.0704-11.2998h-38.04v-13.8501l-75.77-27.5796h-67.6196l-24.3204-24.3306l-117.7397,42.8604l-53.48-19.46v192.3696
		h19.1201l8.7198,8.7203l17.6601,17.6601l17.9097-10.3501l67.25,67.25v21.6997l9.79,26.9203l84.6504,84.8496h342.8696l3.5997-3.5996
		l7.75,7.75l48.621,17.6906l11.2295-4.0806l13.1495-13.1602h24.9805l5,13.7203h8.8202l7.6993,21.1601l44.4707,16.1797
		l17.1396,17.1406v7.8399h-7.8302l-15.3895-15.4005v30.7803l-10.84,10.8398l-2.9901-2.9795l-5.5801,15.3594l6.71,2.4394
		l45.1395-15.9394l-6.83-6.8203l8.9912-9h18.1591l17.3107-6.2998l11.619-11.6202h43.291l2.0499-5.6093h5.1396l14.6895-40.3809
		l18.8505,6.8711l12.7998,35.1895l35.2804-12.8399l-29.2598,29.2598l14.5594,14.5498l18.13-18.1299l44.7401-16.29l5.8995-16.1906
		l-6-16.4697h-5.5693l-11.6602,32.0498l-27.4795-10l-11.5801-31.8398l-8.4806,3.08l-3.0303-8.33l25.9297-9.4297l-14.5692-14.5703
		l-54.5996,19.8802l7.1893-17.3999h18.42l9.4707-16.4004h79.1494l20.1299-20.1499h18.3906l16.8397-16.8501v-28.6298
		L1522.791,777.7124z"/>
</g>
<g id="Admin_1_Poly">
	<polygon fill="none" stroke="#939598" stroke-width="0.7" stroke-linecap="round" points="879.623,1022.791 879.623,1090.8398 
		818.0947,1090.8398 818.0947,1006.0869 854.7666,1006.0869 854.7666,1022.791 	"/>
	<polygon fill="none" stroke="#939598" stroke-width="0.7" stroke-linecap="round" points="1033.1191,915.1514 1033.1191,937.207 
		941.4941,937.207 941.4941,882.3989 1021.1982,882.3989 	"/>
	
		<rect x="854.7666" y="954.7187" fill="none" stroke="#939598" stroke-width="0.7" stroke-linecap="round" width="86.7275" height="68.0723"/>
	<polygon fill="none" stroke="#939598" stroke-width="0.7" stroke-linecap="round" points="1031.2549,942.3184 1033.1191,947.4307 
		1033.1191,994.5186 1014.1191,987.5986 941.4941,987.5986 941.4941,937.207 1033.1191,937.207 	"/>
	<polygon fill="none" stroke="#939598" stroke-width="0.7" stroke-linecap="round" points="1057.2949,1090.8398 
		1057.2949,1141.1113 1018.2715,1141.1113 991.9912,1131.543 991.9912,1099.1836 953.3828,1099.1836 953.3828,1090.8398 	"/>
	<polygon fill="none" stroke="#939598" stroke-width="0.7" stroke-linecap="round" points="1066.6385,1166.7666 
		1066.6385,1210.1504 1051.1504,1210.1504 1029.0947,1232.1992 1029.0947,1265.6953 1006.2304,1257.375 968.6142,1205.2061 
		955.1035,1218.7188 911.167,1174.7832 953.3828,1174.7832 953.3828,1099.1836 991.9912,1099.1836 991.9912,1131.543 
		1018.2715,1141.1113 1057.2949,1141.1113 1062.6465,1155.8145 	"/>
	<polygon fill="none" stroke="#939598" stroke-width="0.7" stroke-linecap="round" points="1121.791,1090.4395 1121.791,1106.4951 
		1110.791,1106.4951 1110.8221,1098.9346 1057.2949,1098.9346 1057.2949,1060.9502 1049.7188,1040.127 1046.2871,1030.7031 
		1100.9189,1030.7031 1100.9189,1043.4229 1107.0146,1060.1758 1112.9189,1066.0781 	"/>
	<polygon fill="none" stroke="#939598" stroke-width="0.7" stroke-linecap="round" points="965.6064,1040.127 965.6064,1022.791 
		941.4941,1022.791 941.4941,987.5986 1014.1191,987.5986 1033.1191,994.5186 1046.2871,1030.7031 1049.7188,1040.127 	"/>
	<polygon fill="none" stroke="#939598" stroke-width="0.7" stroke-linecap="round" points="1112.0068,999.7666 1112.0068,1013.1992 
		1104.5908,1020.6152 1100.9189,1030.7031 1046.2871,1030.7031 1033.1191,994.5186 1033.1191,979.8789 1100.0468,979.8789 
		1100.0223,987.7754 1107.7988,995.5586 	"/>
	<polygon fill="none" stroke="#939598" stroke-width="0.7" stroke-linecap="round" points="1147.0468,1057.1191 
		1134.4139,1084.1836 1133.4785,1086.1836 1121.791,1090.4395 1112.9189,1066.0781 1107.0146,1060.1758 1100.9189,1043.4229 
		1100.9189,1030.7031 1104.5908,1020.6152 1112.0068,1013.1992 1112.0068,999.7666 1107.7988,995.5586 1142.5342,995.5586 
		1142.5342,1004.7666 1146.9902,1009.2793 	"/>
	<polygon fill="none" stroke="#939598" stroke-width="0.7" stroke-linecap="round" points="1149.4305,956.7666 1142.5342,975.7109 
		1142.5342,995.5586 1107.7988,995.5586 1100.0223,987.7754 1100.0468,979.8789 1100.2715,979.8789 1078.4229,958.0312 
		1089.0468,928.8467 1104.2871,923.2949 1107.5508,924.4785 1142.2793,937.127 1145.7754,946.7187 1145.7754,946.7275 
		1146.6875,949.2393 1142.4941,960.7754 	"/>
	<polygon fill="none" stroke="#939598" stroke-width="0.7" points="1180.3906,1009.2793 1180.3906,1055.7031 1161.9189,1074.1758 
		1134.4139,1084.1836 1147.0468,1057.1191 1146.9902,1009.2793 	"/>
	<polygon fill="none" stroke="#939598" stroke-width="0.7" points="1117.7264,1106.4951 1111.0947,1124.7031 1104.4229,1143.04 
		1104.4229,1155.8145 1062.6465,1155.8145 1057.2949,1141.1113 1057.2949,1098.9346 1110.8221,1098.9346 1110.791,1106.4951 	"/>
	<polygon fill="none" stroke="#939598" stroke-width="0.7" points="1220.2949,1097.2861 1193.334,1124.7031 1111.0947,1124.7031 
		1117.7264,1106.4951 1121.791,1106.4951 1121.791,1100.5586 1137.1914,1100.5586 1137.1914,1097.2861 	"/>
	<polygon fill="none" stroke="#939598" stroke-width="0.7" points="1135.9424,1124.7031 1135.9424,1201.2783 1118.7031,1201.2783 
		1118.7031,1188.5752 1094.0223,1188.5752 1104.4229,1170.5586 1104.4229,1143.04 1111.0947,1124.7031 	"/>
	<polygon fill="none" stroke="#939598" stroke-width="0.7" stroke-linecap="round" points="1174.9023,1153.6953 
		1174.9023,1188.5752 1148.3027,1188.5752 1148.3027,1201.2783 1135.9424,1201.2783 1135.9424,1124.7031 1164.3506,1124.7031 	"/>
	<polygon fill="none" stroke="#939598" stroke-width="0.7" stroke-linecap="round" points="1105.6787,1224.0947 
		1105.6787,1210.1504 1066.6385,1210.1504 1066.6385,1166.7666 1062.6465,1155.8145 1104.4229,1155.8145 1104.4229,1170.5586 
		1094.0223,1188.5752 1118.7031,1188.5752 1118.7031,1201.2783 1128.4384,1201.2783 	"/>
	<polygon fill="none" stroke="#939598" stroke-width="0.7" stroke-linecap="round" points="1243.5986,1255.375 1234.3427,1280.7988 
		1218.0068,1274.5986 1203.8711,1235.7588 1207.9189,1224.6553 1185.791,1202.5273 1178.1592,1210.1504 1169.2949,1201.2783 
		1148.3027,1201.2783 1148.3027,1188.5752 1174.9023,1188.5752 1180.8553,1194.5352 1221.4551,1194.5352 	"/>
	<polygon fill="none" stroke="#939598" stroke-width="0.7" stroke-linecap="round" points="1227.2871,1177.4707 
		1221.4551,1194.5352 1180.8553,1194.5352 1174.9023,1188.5752 1174.9023,1153.6953 1164.3506,1124.7031 1193.334,1124.7031 
		1216.5262,1147.8945 	"/>
	<polygon fill="none" stroke="#939598" stroke-width="0.7" stroke-linecap="round" points="1260.3593,1144.3984 
		1227.2871,1177.4707 1216.5262,1147.8945 1193.334,1124.7031 1215.5586,1116.6143 1242.3184,1126.3506 	"/>
	<polygon fill="none" stroke="#939598" stroke-width="0.7" stroke-linecap="round" points="1287.3427,1097.2861 1287.3427,1117.415 
		1260.3593,1144.3984 1242.3184,1126.3506 1215.5586,1116.6143 1193.334,1124.7031 1220.2949,1097.2861 	"/>
	<polygon fill="none" stroke="#939598" stroke-width="0.7" stroke-linecap="round" points="1300.5908,1030.751 1303.2871,1035.4229 
		1294.0468,1044.6143 1233.1426,1044.6143 1233.1426,1007.8789 1242.1914,998.8311 1242.1914,1005.5986 1292.8867,1005.5986 
		1305.2469,1017.959 	"/>
	<polygon fill="none" stroke="#939598" stroke-width="0.7" stroke-linecap="round" points="1301.8387,1066.0068 
		1291.0223,1066.0068 1291.0223,1044.6143 1294.0468,1044.6143 1295.9344,1049.8066 1295.9424,1049.8145 	"/>
	<polygon fill="none" stroke="#939598" stroke-width="0.7" stroke-linecap="round" points="1233.1426,1007.8789 
		1233.1426,1029.7988 1224.623,1053.2227 1205.7422,1072.0947 1180.3906,1055.7031 1180.3906,1009.2793 1193.9344,1009.2793 
		1197.7422,1010.6631 1211.6141,1015.7109 	"/>
	<polygon fill="none" stroke="#939598" stroke-width="0.7" stroke-linecap="round" points="1269.334,1049.2393 1243.9023,1063.8867 
		1237.5342,1081.3828 1214.1191,1089.9023 1205.7422,1081.5273 1205.7422,1072.0947 1224.623,1053.2227 1233.1426,1029.7988 
		1233.1426,1044.6143 1245.951,1044.6143 1245.951,1052.623 1255.2469,1049.2393 	"/>
	<polygon fill="none" stroke="#939598" stroke-width="0.7" stroke-linecap="round" points="1205.7422,1072.0947 
		1205.7422,1081.5273 1189.9824,1097.2861 1137.1914,1097.2861 1137.1914,1100.5586 1121.791,1100.5586 1121.791,1090.4395 
		1133.4785,1086.1836 1134.4139,1084.1836 1161.9189,1074.1758 1180.3906,1055.7031 	"/>
	<polygon fill="none" stroke="#939598" stroke-width="0.7" stroke-linecap="round" points="1312.1504,1031.5664 
		1314.5586,1033.9746 1308.7031,1050.0625 1302.4463,1056.3193 1295.9424,1049.8145 1295.9344,1049.8066 1294.0468,1044.6143 
		1303.2871,1035.4229 1300.5908,1030.751 1305.2469,1017.959 1305.2793,1017.9912 1315.7754,1022.0625 	"/>
	<polygon fill="none" stroke="#939598" stroke-width="0.7" stroke-linecap="round" points="1364.6307,1002.082 1364.6307,1010.3223 
		1352.5215,1014.7227 1347.0508,1005.2432 1321.8906,1005.2432 1321.8906,993.1123 1352.6113,993.1123 1347.9305,997.8027 
		1358.0918,1007.9629 1362.5713,1007.9629 	"/>
	<polygon fill="none" stroke="#939598" stroke-width="0.7" stroke-linecap="round" points="1345.4227,954.4072 1331.334,993.1113 
		1321.8945,993.1113 1321.8945,954.4072 	"/>
	<polygon fill="none" stroke="#939598" stroke-width="0.7" stroke-linecap="round" points="1340.951,1005.2432 1340.951,1018.9326 
		1325.2812,1018.9326 1315.7715,1022.0625 1321.8906,1015.9424 1321.8906,1005.2432 	"/>
	<polygon fill="none" stroke="#939598" stroke-width="0.7" stroke-linecap="round" points="1352.5215,1014.7227 1340.951,1018.9326 
		1340.951,1005.2432 1347.0508,1005.2432 	"/>
	<polygon fill="none" stroke="#939598" stroke-width="0.7" stroke-linecap="round" points="1401.998,958.8145 1376.5508,968.0791 
		1352.6141,993.1113 1352.6141,948.791 1367.3027,908.415 1378.4227,912.4629 1386.1504,915.2793 1398.959,950.4707 	"/>
	<polygon fill="none" stroke="#939598" stroke-width="0.7" stroke-linecap="round" points="781.8305,882.3989 781.8305,939.6631 
		689.9267,939.6631 689.9267,894.7187 708.3266,901.4229 708.3266,882.3989 	"/>
	<polygon fill="none" stroke="#939598" stroke-width="0.7" stroke-linecap="round" points="786.2549,951.1191 781.8305,963.2793 
		781.8305,1006.0869 689.9267,1006.0869 689.9267,939.6631 781.8305,939.6631 	"/>
	<polygon fill="none" stroke="#939598" stroke-width="0.7" stroke-linecap="round" points="812.1909,1125.6787 812.1909,1166.4951 
		784.1826,1176.6787 784.1826,1176.6865 783.9985,1176.75 689.9267,1082.6953 689.9267,1006.0869 743.9345,1006.0869 
		743.9345,1057.4307 	"/>
	<path fill="none" stroke="#939598" stroke-width="0.7" stroke-linecap="round" d="M1287.3427,1085.6709v11.6152h-97.3602
		l15.7598-15.7588l8.377,8.375l23.415-8.5195l6.3682-17.4961l25.4316-14.6475l6.6484,6.6475l0.8086,0.8086l0.4883,1.3281
		l4.2391,11.6475L1287.3427,1085.6709z M1291.4707,1078.1992l2.9677,8.1436l2.9601-8.1436H1291.4707z"/>
	<path fill="none" stroke="#939598" stroke-width="0.7" stroke-linecap="round" d="M613.8867,748.9346v21.6964l-16.0479-5.7442
		l-58.1045-58.104l-13.1274,7.5762l-39.2163-39.2158h-34.5762l-61.8955-22.5284v24.336l-35.3442,12.8642v-30.3198h18.6162v-14.4883
		l-43.1201,24.896v20.752l-67.584,67.5845l-133.7442,48.6796l146.8482-84.7841l9.7358-26.648l-18.936,6.8882h-42.8799v-35.8403
		l-21.1919,12.2402l-27.6001-27.6001v-26.8882l60.6319-22.0718v-20.9443H171.855l-28.648-28.6475l41.7676-15.2001l20.6562,7.5117
		h43.9278v-7.0318l-81.7759-29.768v-26.792l106.9761-38.9356h123.6479l84.8237,30.8721v192.3755h19.1202l26.3759,26.3764
		l17.9121-10.3447L613.8867,748.9346z M310.3266,728.8867l12.168,12.168l21.2397-21.2398v-24.3281L310.3266,728.8867z
		 M173.2226,664.1909l-23.248,8.4639l26.1445,9.5122l3.4956-3.4883v-8.1035L173.2226,664.1909z"/>
	<polygon fill="none" stroke="#939598" stroke-width="0.7" stroke-linecap="round" points="879.623,1090.8398 879.623,1186.6631 
		868.1269,1186.6709 812.455,1166.3984 812.1909,1166.4951 812.1909,1105.5117 818.0947,1105.5117 818.0947,1090.8398 	"/>
	<polygon fill="none" stroke="#939598" stroke-width="0.7" stroke-linecap="round" points="818.0947,1006.0869 818.0947,1105.5117 
		812.1909,1105.5117 812.1909,1125.6787 743.9345,1057.4307 743.9345,1006.0869 	"/>
	<polygon fill="none" stroke="#939598" stroke-width="0.7" stroke-linecap="round" points="854.7666,962.8711 854.7666,1006.0869 
		781.8305,1006.0869 781.8305,963.2793 786.2549,951.1191 781.8305,939.6631 781.8305,882.3989 793.2466,882.3989 
		793.2466,894.4229 808.6709,936.7988 834.7426,962.8711 	"/>
	<path fill="none" stroke="#939598" stroke-width="0.7" stroke-linecap="round" d="M824.3667,882.3989H708.3266l-84.6479-84.8481
		l-9.792-26.9199v-21.6964l-67.2481-67.248l-17.9121,10.3447l-17.6557-17.6562h230.3359v125.0718L824.3667,882.3989z
		 M599.1108,806.9751v-19.6885h-17.9199v25.8643l37.48,13.3839L599.1108,806.9751z M662.791,853.7988l-21.4805-7.8159
		l5.0322,13.8242l21.6963,21.6958l34.6797,12.2242L662.791,853.7988z"/>
	<polygon fill="none" stroke="#939598" stroke-width="0.7" stroke-linecap="round" points="1128.4629,735.4629 1051.1982,812.7271 
		1051.1982,882.3989 969.623,882.3989 969.623,674.375 1057.2949,674.375 1057.2949,697.4868 1075.9023,697.4868 1088.8145,732.959 
		1105.1914,726.999 	"/>
	<polygon fill="none" stroke="#939598" stroke-width="0.7" stroke-linecap="round" points="1078.4229,958.0312 1100.2715,979.8789 
		1033.1191,979.8789 1033.1191,947.4307 1031.2549,942.3184 1033.1191,937.207 1033.1191,915.1514 1021.1982,882.3989 
		1051.1982,882.3989 1054.7988,878.7988 1062.5508,886.5508 1111.1748,904.2471 1090.4629,924.959 1089.0468,928.8467 	"/>
	<path fill="none" stroke="#939598" stroke-width="0.7" stroke-linecap="round" d="M1190.7031,934.5029h-40.4806l-4.4471,12.2158
		l-3.4961-9.5917l-34.7285-12.6485l33.3916-12.0312l4.5684,13.3115l18.7362-6.8154l2.4952,6.8398L1190.7031,934.5029z
		 M1124.5342,901.6865h10.0479v-4L1124.5342,901.6865z M1205.4139,970.167l-12.7264,7.3516l9.959-27.375l-23.0879-8.4004
		l-15.8243,15.8154l-5.744,15.792l1.1768,3.2324l3.8477,10.5918l-8.04,22.1045h38.9598l3.8077,1.3838l3.288-9.0235l5.584-15.3603
		l3.9845-10.9287L1205.4139,970.167z"/>
	<path fill="none" stroke="#939598" stroke-width="0.7" stroke-linecap="round" d="M1277.7343,943.3672l-32.1268-32.1201v-78.2559
		l-6.665,6.6636l-28.0157-28.0152v-44.1049h-59.1122v-23.5679l-23.3516-8.5039l-77.2646,77.2642v69.6718l3.6006-3.6001l7.752,7.752
		l48.624,17.6963l11.2236-4.0801l13.1523-13.1602h24.9834l4.9921,13.7119h8.8243l7.6962,21.1602l44.4717,16.1836l17.1447,17.1445
		v7.8322h-7.833l-15.3917-15.3916v30.7754l-10.8397,10.8398l-2.9845-2.9834l-5.584,15.3603l6.712,2.4473l45.1367-15.9433
		l-6.8322-6.8252l8.9922-8.9913h18.1603l17.3115-6.3037l11.6161-11.6161h7.2158v-11.04H1277.7343z M1207.5428,937.0469h-11.7041
		l19.4484,7.752L1207.5428,937.0469z"/>
	<polygon fill="none" stroke="#939598" stroke-width="0.7" stroke-linecap="round" points="1352.6141,948.791 1352.6141,993.1113 
		1331.334,993.1113 1345.4227,954.4072 1347.4707,948.791 	"/>
	<path fill="none" stroke="#939598" stroke-width="0.7" stroke-linecap="round" d="M1302.1307,954.4023l-16.83,16.8301v11.5703
		h-17.7393l-14.6808,5.3399l-10.6893,10.6894v6.7705h50.6992l12.3602,12.3604l0.0304,0.0303l10.4902,4.0693l6.1191-6.1201v-61.5401
		H1302.1307z M1317.3711,1024.2627v7.8096l21.4598-7.8096H1317.3711z"/>
	<polygon fill="none" stroke="#939598" stroke-width="0.7" stroke-linecap="round" points="867.583,674.375 867.583,882.3989 
		824.3667,882.3989 741.4067,799.4468 741.4067,674.375 	"/>
	<polygon fill="none" stroke="#939598" stroke-width="0.7" stroke-linecap="round" points="941.4941,882.3989 941.4941,954.7187 
		854.7666,954.7187 854.7666,962.8711 834.7426,962.8711 808.6709,936.7988 793.2466,894.4229 793.2466,882.3989 	"/>
	
		<rect x="867.583" y="674.375" fill="none" stroke="#939598" stroke-width="0.7" stroke-linecap="round" width="102.04" height="208.0239"/>
	<path fill="none" stroke="#939598" stroke-width="0.7" stroke-linecap="round" d="M1540.8553,795.7749v28.6323l-16.8485,16.8477
		h-1.8154v-11.4722h-101.2012l-26.2638-26.272v-29.0639h49.5996v-89.7119l30.9288,53.576v22.0963l47.5361,17.3036
		L1540.8553,795.7749z M1566.0068,875.0791H1531.91l10.8086-29.7041h-17.9043l-24.1112,64.9277h63.7108l8.4806-23.2959
		L1566.0068,875.0791z"/>
	<polygon fill="none" stroke="#939598" stroke-width="0.7" stroke-linecap="round" points="1462.6141,927.3672 1454.6621,935.3184 
		1440.7754,935.3184 1434.3184,917.5986 1444.5342,927.4473 	"/>
	<path fill="none" stroke="#939598" stroke-width="0.7" stroke-linecap="round" d="M1522.1914,829.7827v11.4722h-16.5685
		l-20.1366,20.144h-79.1437l-9.4716,16.3999h-18.4248l-7.1836,17.3999l54.6006-19.8716l14.5673,14.5679l-25.9198,9.4321
		l-36.088,13.1358l-11.12-4.0479l-14.6886,40.376h-5.1434l-2.048,5.6162h-36.0801v-11.04h-31.6084l-32.1268-32.1201v-78.2559
		l12.9746-12.9683l-14.9513-41.0883l35.3116-20.3915V718.647l-22.424-22.4239l16.1769-16.1762v-38.248l-11.5762-11.584
		l11.2235-11.2158l96.2002,35.0156v45.4561l37.3838,13.6084l21.1769-58.1763l17.2225,29.8322v89.7119h-49.5996v29.0639
		l26.2638,26.272H1522.1914z M1445.8301,866.0791h-14.2793l12.1201,12.1196l23.5674,8.5762v-12.9043L1445.8301,866.0791z"/>
	<path fill="none" stroke="#939598" stroke-width="0.7" stroke-linecap="round" d="M1224.3593,482.2866v52.2725l-67.4403,24.5517
		l-99.624,99.6163v15.6479H969.623l-0.0088-14.2881v-3.1279l-0.039-72.9761l-235.7124-85.792v-23.9761h12.5278l75.7681,27.5762
		v13.8486h38.0405l31.0723,11.3033V507.623l34.1679-12.4321l45.3994,16.52h50.1836v-16.3921l27.4483,27.4478v-17.0957
		l17.5594-6.3916V474.415l-33.911-12.3437V436.127l12.7196-12.7198h22.88l30.7754,30.7754v22.3843l11.1846,11.1763v16.5595
		l8.7676-24.0957l47.1445,17.1597l11.7197-32.2075L1224.3593,482.2866z M1357.2383,432.1108l-181.8477-66.1919l-63.0156,63.0157
		l30.792,30.7925h105.2635v-9.4405l81.9445,81.9365l-45.0723,45.0796l118.1914,43.0161v-71.6001h70.3525L1357.2383,432.1108z
		 M1217.0468,575.3589l-41.2802-15.0239l-18.6074,6.7675v32.9287l18.0234,10.4156l16.6641-16.6641l36.7919,13.3921l10.1123-10.1118
		L1217.0468,575.3589z M944.1748,443.6709l-15.0078-41.2402l-41.5918-15.1358l11.7275,32.2158l-32.5273-11.8398v58.5762h-89.9449
		v6.0879l24.4961,8.9199h22.9121v12.0478h40.1363l44.5674-16.2236l58.8486,21.416l14.8642-40.8242L944.1748,443.6709z
		 M1024.375,376.2949h-51.416l-13.3038,36.544l52.8077,19.2241l23.6162-23.6157L1024.375,376.2949z M1053.5664,365.9189
		l-10.6562,10.6641l12.7284,34.9761h15.465l45.6387-45.6402H1053.5664z M895.4785,323.6631l-20.1445-20.1445l-8.0547,8.0566v42.2715
		l19.3838-7.0557h36.1601v-23.1279H895.4785z"/>
	<path fill="none" stroke="#939598" stroke-width="0.7" stroke-linecap="round" d="M969.623,674.375H511.0708l-8.7202-8.7202
		h-19.1202V473.2793l53.4805,19.4639l117.7441-42.8565l24.3199,24.3281h55.0879v23.9761l235.7124,85.792l0.039,72.9761v3.1279
		L969.623,674.375z M815.8628,389.1431l-55.6802,20.2641v22.6558l71.0322,25.8559h-54.3843v8.3282h89.9449v-58.5762
		L815.8628,389.1431z M742.3506,358.8311h-67.272l19.4243,19.416l-34.8643,34.8637l47.2559,17.7437l27.7202-10.0879V406.479
		l69.3281-25.2319L742.3506,358.8311z M856.4228,322.4307l-4.2881,4.2964l-48.5522-17.6724l-31.3838,31.3843l65.9517,24.0083
		l29.1289-10.6006v-42.2715L856.4228,322.4307z M783.5346,286.2393l-62.872,22.8794l-9.9517,9.9526l27.8159,10.1274l45.6236-16.6079
		l19.1601-19.1518L783.5346,286.2393z"/>
	<polygon fill="none" stroke="#939598" stroke-width="0.7" stroke-linecap="round" points="953.3828,1090.8398 953.3828,1174.7832 
		890.7754,1174.7832 890.7754,1186.6631 879.623,1186.6631 879.623,1090.8398 	"/>
	<polygon fill="none" stroke="#939598" stroke-width="0.7" stroke-linecap="round" points="1301.8387,1066.0068 
		1297.3984,1078.1992 1291.4707,1078.1992 1284.959,1060.3027 1281.5184,1069.6709 1277.2793,1058.0234 1278.91,1056.3906 
		1277.1914,1054.6709 1275.9824,1055.8867 1269.334,1049.2393 1255.2469,1049.2393 1245.951,1052.623 1245.951,1044.6143 
		1291.0223,1044.6143 1291.0223,1066.0068 	"/>
	<polygon fill="none" stroke="#939598" stroke-width="0.7" stroke-linecap="round" points="1057.2949,1060.9502 
		1057.2949,1090.8398 965.6064,1090.8398 965.6064,1040.127 1049.7188,1040.127 	"/>
	
		<rect x="879.623" y="1022.791" fill="none" stroke="#939598" stroke-width="0.7" stroke-linecap="round" width="85.9834" height="68.0488"/>
	<polygon fill="none" stroke="#939598" stroke-width="0.7" stroke-linecap="round" points="1278.91,1056.3906 1277.2793,1058.0234 
		1276.791,1056.6953 1275.9824,1055.8867 1277.1914,1054.6709 	"/>
	<polygon fill="none" stroke="#939598" stroke-width="0.7" stroke-linecap="round" points="1437.5918,936.4121 1434.2314,937.6328 
		1398.951,950.4727 1386.1512,915.2832 1378.4218,912.4727 1414.5117,899.3325 1417.5311,907.6523 1426.0117,904.5723 	"/>
	<polygon fill="none" stroke="#939598" stroke-width="0.7" stroke-linecap="round" points="1488.3008,930.832 1482.4012,947.0225 
		1437.6611,963.3125 1419.5311,981.4424 1404.9717,966.8926 1434.2314,937.6328 1437.5918,936.4121 1465.0713,946.4121 
		1476.7314,914.3623 1482.3008,914.3623 	"/>
</g>
<g id="Admin_0_Lines">
	<polyline fill="none" stroke="#000000" stroke-width="1.5" stroke-linecap="round" points="1398.951,950.4727 1386.1512,915.2832 
		1367.3008,908.4229 1352.6113,948.793 1347.4717,948.793 1345.4218,954.4121 1321.9012,954.4121 1309.3418,954.4121 
		1302.1211,954.4121 1290.5009,966.0332 	"/>
	
		<line fill="none" stroke="#000000" stroke-width="1.5" stroke-linecap="round" x1="1206.6113" y1="986.2832" x2="1201.0312" y2="1001.6426"/>
	<polyline fill="none" stroke="#000000" stroke-width="1.5" stroke-linecap="round" points="784.1811,1176.6826 812.1811,1166.502 
		812.4511,1166.4023 868.1211,1186.6729 879.6211,1186.6729 890.7715,1186.6729 890.7715,1174.7832 911.1611,1174.7832 
		955.1015,1218.7227 968.6113,1205.2129 1006.2314,1257.3828 1029.0918,1265.7031 	"/>
	<polyline fill="none" stroke="#000000" stroke-width="1.5" stroke-linecap="round" points="1111.1718,904.252 1062.5508,886.5527 
		1054.8008,878.8027 1051.201,882.4023 1021.2011,882.4023 969.6211,882.4023 941.4912,882.4023 867.581,882.4023 
		824.3613,882.4023 793.2514,882.4023 781.8315,882.4023 708.3213,882.4023 	"/>
	<path id="path34576_1_" fill="none" stroke="#000000" stroke-width="1.5" stroke-linecap="round" d="M613.8847,770.6382v-21.6968
		l-67.2485-67.2476l-17.9116,10.3414l-26.375-26.375l0.0019,0.0024h-19.1303V473.2827"/>
</g>
<g id="Admin_1_Lines">
	<polyline fill="none" stroke="#939598" stroke-width="0.7" points="781.8315,882.4023 781.8315,939.6729 689.9214,939.6729 	"/>
	<polyline fill="none" stroke="#939598" stroke-width="0.7" stroke-linecap="round" points="689.9214,1006.082 743.9311,1006.082 
		743.9311,1057.4326 812.1811,1125.6826 812.1811,1166.502 	"/>
	<polyline fill="none" stroke="#939598" stroke-width="0.7" stroke-linecap="round" points="743.9311,1006.082 781.8315,1006.082 
		818.0913,1006.082 818.0913,1090.8418 818.0913,1105.5127 812.1811,1105.5127 812.1811,1125.6826 	"/>
	<polyline fill="none" stroke="#939598" stroke-width="0.7" stroke-linecap="round" points="818.0913,1006.082 854.7715,1006.082 
		854.7715,1022.793 879.6211,1022.793 879.6211,1090.8418 818.0913,1090.8418 	"/>
	
		<line fill="none" stroke="#939598" stroke-width="0.7" stroke-linecap="round" x1="879.6211" y1="1186.6729" x2="879.6211" y2="1090.8418"/>
	<polyline fill="none" stroke="#939598" stroke-width="0.7" stroke-linecap="round" points="854.7715,1006.082 854.7715,962.873 
		854.7715,954.7227 941.4912,954.7227 941.4912,987.6025 941.4912,1022.793 	"/>
	<polyline fill="none" stroke="#939598" stroke-width="0.7" stroke-linecap="round" points="941.4912,954.7227 941.4912,937.2129 
		941.4912,882.4023 	"/>
	<polyline fill="none" stroke="#939598" stroke-width="0.7" points="781.8315,939.6729 786.2514,951.123 781.8315,963.2832 
		781.8315,1006.082 	"/>
	<path id="path123568" fill="none" stroke="#939598" stroke-width="0.7" stroke-linecap="round" d="M793.247,894.4243
		l15.4244,42.3775l26.0717,26.0712h20.0284"/>
	
		<line fill="none" stroke="#939598" stroke-width="0.7" stroke-linecap="round" x1="793.2514" y1="894.4224" x2="793.2514" y2="882.4023"/>
	<polyline fill="none" stroke="#939598" stroke-width="0.7" stroke-linecap="round" points="941.4912,937.2129 1033.1113,937.2129 
		1033.1113,915.1523 1021.2011,882.4023 	"/>
	<polyline fill="none" stroke="#939598" stroke-width="0.7" stroke-linecap="round" points="953.3808,1090.4424 953.3808,1090.8418 
		953.3808,1099.1826 953.3808,1174.7832 911.1611,1174.7832 	"/>
	<polyline fill="none" stroke="#939598" stroke-width="0.7" stroke-linecap="round" points="941.4912,987.6025 1014.1113,987.6025 
		1033.1113,994.5225 1033.1113,979.8828 1033.1113,947.4326 1031.2509,942.3223 1033.1113,937.2129 	"/>
	<polyline fill="none" stroke="#939598" stroke-width="0.7" stroke-linecap="round" points="1033.1113,994.5225 1046.292,1030.7031 
		1049.7217,1040.1328 965.6113,1040.1328 	"/>
	<polyline fill="none" stroke="#939598" stroke-width="0.7" stroke-linecap="round" points="1049.7217,1040.1328 
		1057.3008,1060.9531 1057.3008,1090.4424 	"/>
	<polyline fill="none" stroke="#939598" stroke-width="0.7" stroke-linecap="round" points="1057.3008,1090.4424 
		1057.3008,1098.9424 1057.3008,1128.0918 1057.3008,1141.1123 1018.2607,1141.1123 991.9814,1131.5527 991.9814,1099.1826 
		953.3808,1099.1826 	"/>
	<polyline fill="none" stroke="#939598" stroke-width="0.7" stroke-linecap="round" points="1066.6307,1210.1523 
		1066.6307,1166.7725 1062.6416,1155.8125 1057.3008,1141.1123 	"/>
	<polyline fill="none" stroke="#939598" stroke-width="0.7" stroke-linecap="round" points="1057.3008,1098.9424 
		1110.8213,1098.9424 1110.792,1106.4932 1111.2617,1106.4932 1117.7217,1106.4932 1111.0918,1124.7031 1104.4218,1143.043 
		1104.4218,1147.9121 1104.4218,1155.8125 1062.6416,1155.8125 	"/>
	<polyline fill="none" stroke="#939598" stroke-width="0.7" stroke-linecap="round" points="1033.1113,979.8828 1100.2715,979.8828 
		1078.4218,958.0332 1089.0508,928.8418 	"/>
	<polyline fill="none" stroke="#939598" stroke-width="0.7" stroke-linecap="round" points="1100.0215,980.1328 1100.0215,987.7832 
		1107.8115,995.5625 1112.0117,999.7627 1112.0117,1013.2031 1104.5918,1020.623 1100.9218,1030.7031 1046.292,1030.7031 	"/>
	<polyline fill="none" stroke="#939598" stroke-width="0.7" stroke-linecap="round" points="1100.9218,1030.7031 
		1100.9218,1043.4326 1107.0117,1060.1826 1112.9218,1066.082 	"/>
	
		<line fill="none" stroke="#939598" stroke-width="0.7" stroke-linecap="round" x1="1121.7812" y1="1090.4424" x2="1112.9218" y2="1066.082"/>
	<path id="path123624" fill="none" stroke="#939598" stroke-width="0.7" stroke-linecap="round" d="M1121.785,1090.4434
		l11.6953-4.2559l13.5664-29.0625l-0.0614-47.8457"/>
	<polyline fill="none" stroke="#939598" stroke-width="0.7" stroke-linecap="round" points="1106.8115,995.5625 1107.8115,995.5625 
		1142.5312,995.5625 	"/>
	<polyline fill="none" stroke="#939598" stroke-width="0.7" stroke-linecap="round" points="1145.7715,946.7227 1142.2715,937.123 
		1107.5615,924.4932 1107.5508,924.4932 	"/>
	<polyline fill="none" stroke="#939598" stroke-width="0.7" stroke-linecap="round" points="1111.2617,1106.4932 
		1117.7217,1106.4932 1121.7812,1106.4932 1121.7812,1100.5625 1121.7812,1090.4424 	"/>
	<polyline fill="none" stroke="#939598" stroke-width="0.7" stroke-linecap="round" points="1121.7812,1100.5625 
		1137.1914,1100.5625 1137.1914,1097.293 1189.9814,1097.293 1205.7412,1081.5332 1205.7412,1072.1025 1180.3916,1055.7129 	"/>
	<polyline fill="none" stroke="#939598" stroke-width="0.7" stroke-linecap="round" points="1111.0918,1124.7031 
		1164.3514,1124.7031 1193.3309,1124.7031 1220.3008,1097.293 1189.9814,1097.293 	"/>
	<path id="path33267_1_" fill="none" stroke="#939598" stroke-width="0.7" d="M1154.9746,1009.2793h25.415v46.4287l-18.4707,18.4707
		l-27.502,10.0107"/>
	<line fill="none" stroke="#939598" stroke-width="0.7" x1="1135.9414" y1="1201.2832" x2="1135.9414" y2="1124.8223"/>
	<polyline fill="none" stroke="#939598" stroke-width="0.7" points="1128.4305,1201.2832 1118.701,1201.2832 1118.701,1188.582 
		1094.0215,1188.582 1104.4218,1170.5625 1104.4218,1155.8125 1104.4218,1147.9121 	"/>
	<polyline fill="none" stroke="#939598" stroke-width="0.7" stroke-linecap="round" points="1148.3008,1201.2832 
		1148.3008,1188.582 1174.9012,1188.582 1174.9012,1153.7031 1164.3514,1124.7031 	"/>
	<path id="path34486" fill="none" stroke="#939598" stroke-width="0.7" stroke-linecap="round" d="M1174.8984,1188.5781
		l5.9561,5.957h40.5977"/>
	<path id="path34490_1_" fill="none" stroke="#939598" stroke-width="0.7" stroke-linecap="round" d="M1193.3301,1124.7061
		l23.1923,23.1924l10.7638,29.5732"/>
	<polyline fill="none" stroke="#939598" stroke-width="0.7" stroke-linecap="round" points="1193.3309,1124.7031 
		1215.5615,1116.6123 1242.3115,1126.3525 1260.3613,1144.4023 	"/>
	
		<line fill="none" stroke="#939598" stroke-width="0.7" stroke-linecap="round" x1="1287.3418" y1="1097.293" x2="1220.3008" y2="1097.293"/>
	<path id="path34496_1_" fill="none" stroke="#939598" stroke-width="0.7" stroke-linecap="round" d="M1233.1445,1007.8789v21.9238
		l-8.5244,23.4219l-18.8771,18.877"/>
	<path id="path34496" fill="none" stroke="#939598" stroke-width="0.7" stroke-linecap="round" d="M1180.3896,1009.2793h13.5409
		l3.8097,1.3857"/>
	<path id="path34504" fill="none" stroke="#939598" stroke-width="0.7" stroke-linecap="round" d="M1245.9463,1044.6162h45.0732
		v21.3984h10.8145"/>
	<path id="path34508" fill="none" stroke="#939598" stroke-width="0.7" stroke-linecap="round" d="M1205.743,1081.5293l8.3761,8.375
		l23.411-8.5215l6.3672-17.4932c0-0.001,25.4347-14.6494,25.4347-14.6494h-14.0908l-9.2949,3.3828v-8.0068h-12.8018v-27.1953"/>
	<polyline fill="none" stroke="#939598" stroke-width="0.7" stroke-linecap="round" points="1281.5312,1069.7324 
		1281.5312,1069.7227 1276.792,1056.7031 1269.3309,1049.2432 	"/>
	<polyline fill="none" stroke="#939598" stroke-width="0.7" stroke-linecap="round" points="1295.9305,1049.8027 
		1294.041,1044.6123 1291.0215,1044.6123 	"/>
	<path id="path34516_1_" fill="none" stroke="#939598" stroke-width="0.7" stroke-linecap="round" d="M1242.1865,998.8379v6.7646
		h50.6981l12.3916,12.3916"/>
	<path id="path34518" fill="none" stroke="#939598" stroke-width="0.7" stroke-linecap="round" d="M1305.2422,1017.959
		l-4.6573,12.7939l2.6974,4.6709l-9.2363,9.1924"/>
	
		<line fill="none" stroke="#939598" stroke-width="0.7" stroke-linecap="round" x1="1315.7715" y1="1022.0625" x2="1305.2812" y2="1017.9932"/>
	<polyline fill="none" stroke="#939598" stroke-width="0.7" stroke-linecap="round" points="1321.9012,1005.2432 
		1340.951,1005.2432 1340.951,1018.9424 	"/>
	<polyline fill="none" stroke="#939598" stroke-width="0.7" stroke-linecap="round" points="1340.951,1005.2432 1347.041,1005.2432 
		1352.5215,1014.7324 	"/>
	<polyline fill="none" stroke="#939598" stroke-width="0.7" stroke-linecap="round" points="1321.9012,993.1123 1328.3807,993.1123 
		1331.3309,993.1123 1345.4218,954.4121 	"/>
	<path id="path34552_1_" fill="none" stroke="#939598" stroke-width="0.7" stroke-linecap="round" d="M1352.6104,948.79v44.3272
		h-24.2324"/>
	
		<line fill="none" stroke="#939598" stroke-width="0.7" stroke-linecap="round" x1="1297.3906" y1="1078.2031" x2="1291.4717" y2="1078.2031"/>
	<polyline fill="none" stroke="#939598" stroke-width="0.7" stroke-linecap="round" points="1414.5117,899.3325 1378.4218,912.4727 
		1378.4111,912.4727 1378.3213,912.502 	"/>
	<polyline fill="none" stroke="#939598" stroke-width="0.7" stroke-linecap="round" points="1057.3008,674.3823 969.6211,674.3823 
		867.581,674.3823 741.4111,674.3823 511.0713,674.3823 	"/>
	<path id="path34608" fill="none" stroke="#939598" stroke-width="0.7" stroke-linecap="round" d="M867.581,674.3818v208.0172"/>
	<polyline fill="none" stroke="#939598" stroke-width="0.7" stroke-linecap="round" points="741.4111,674.3823 741.4111,799.4526 
		824.3613,882.4023 	"/>
	<polyline fill="none" stroke="#939598" stroke-width="0.7" stroke-linecap="round" points="969.6211,882.4023 969.6211,674.3823 
		969.6211,671.2524 	"/>
	<polyline fill="none" stroke="#939598" stroke-width="0.7" stroke-linecap="round" points="1128.4717,735.4624 1051.201,812.7324 
		1051.201,882.4023 	"/>
	<polyline fill="none" stroke="#939598" stroke-width="0.7" stroke-linecap="round" points="1245.6113,832.9927 1245.6113,911.252 
		1277.7314,943.373 1309.3418,943.373 1309.3418,954.4121 	"/>
	<polyline fill="none" stroke="#939598" stroke-width="0.7" stroke-linecap="round" points="733.8711,474.2129 733.8711,498.1924 
		969.581,583.9824 969.6211,671.2524 	"/>
	<polyline fill="none" stroke="#939598" stroke-width="0.7" stroke-linecap="round" points="866.7715,407.6729 866.7715,466.2524 
		776.8315,466.2524 	"/>
	
		<line fill="none" stroke="#939598" stroke-width="0.7" stroke-linecap="round" x1="867.2812" y1="353.8525" x2="867.2812" y2="311.5723"/>
	<polyline fill="none" stroke="#939598" stroke-width="0.7" stroke-linecap="round" points="1524.0068,841.2549 1522.1914,841.2549 
		1522.1914,829.7827 1420.9902,829.7827 1394.7264,803.5107 1394.7264,774.4468 1444.326,774.4468 1444.326,684.7349 	"/>
	<polyline fill="none" stroke="#939598" stroke-width="0.7" stroke-linecap="round" points="1275.9824,1055.8867 
		1277.1914,1054.6709 1278.91,1056.3906 1277.2793,1058.0234 	"/>
	
		<line fill="none" stroke="#939598" stroke-width="0.7" stroke-linecap="round" x1="879.624" y1="1090.8438" x2="1057.2949" y2="1090.8438"/>
	
		<line fill="none" stroke="#939598" stroke-width="0.7" stroke-linecap="round" x1="879.623" y1="1022.791" x2="965.6064" y2="1022.791"/>
	
		<line fill="none" stroke="#939598" stroke-width="0.7" stroke-linecap="round" x1="965.6064" y1="1022.791" x2="965.6064" y2="1090.8398"/>
	<polyline fill="none" stroke="#939598" stroke-width="0.7" stroke-linecap="round" points="1315.7715,1022.0625 
		1321.9012,1015.9326 1321.9012,1005.2432 1321.9012,993.1123 1321.9012,954.4121 	"/>
	
		<line fill="none" stroke="#939598" stroke-width="0.7" stroke-linecap="round" x1="1437.5918" y1="936.4121" x2="1434.2314" y2="937.6328"/>
</g>
<g id="Metadata">
	<text transform="matrix(1 0 0 1 121.665 1710.7383)" font-family="'Arial-BoldMT'" font-size="16.4395px">(-13,000,000, 0)</text>
	<text transform="matrix(1 0 0 1 110.991 1596.749)"><tspan x="0" y="0" font-family="'Arial-BoldMT'" font-size="16.4395px">Gall Stereographic</tspan><tspan x="24.6392" y="19.4395" font-family="'Arial-BoldMT'" font-size="16.4395px">1:18,000,000</tspan></text>
	<line fill="none" stroke="#000000" x1="161.8598" y1="1664.5869" x2="206.2983" y2="1664.5869"/>
	<line fill="none" stroke="#000000" x1="184.0791" y1="1686.8066" x2="184.0791" y2="1642.3672"/>
	<text transform="matrix(1 0 0 1 176.8174 1313.396)"><tspan x="0" y="0" font-family="'MyriadPro-It'" font-size="43.5386px">Twenty Seventy</tspan><tspan x="-88.8975" y="34.8311" font-family="'MyriadPro-Regular'" font-size="29.0257px">a linework set from </tspan><tspan x="148.1519" y="34.8311" font-family="'MyriadPro-Semibold'" font-size="29.0257px">Project Linework</tspan></text>
	<rect x="142.8501" y="1417.0391" fill="none" width="302.8149" height="46.3906"/>
	<text transform="matrix(1 0 0 1 210.3574 1426.269)"><tspan x="0" y="0" font-family="'MyriadPro-Regular'" font-size="13px">Handcrafted by Martin E. Elmer</tspan><tspan x="54.2288" y="31.1997" font-family="'MyriadPro-Regular'" font-size="13px">Version 1.1</tspan></text>
</g>
</svg>
